<svg width="103" height="115" viewBox="0 0 103 115" fill="none" xmlns="http://www.w3.org/2000/svg">
<rect width="103" height="115" rx="16" fill="#FABEBD"/>
<path d="M53.54 10.58C62.1 10.58 68.94 12.82 74.06 17.3C79.26 21.78 81.86 28.1 81.86 36.26C81.86 43.78 79.38 49.66 74.42 53.9C69.54 58.06 63.06 60.18 54.98 60.26L54.38 69.26H36.38L35.78 46.94H42.98C49.14 46.94 53.82 46.18 57.02 44.66C60.3 43.14 61.94 40.38 61.94 36.38C61.94 33.58 61.18 31.38 59.66 29.78C58.14 28.18 56.02 27.38 53.3 27.38C50.42 27.38 48.18 28.22 46.58 29.9C44.98 31.5 44.18 33.7 44.18 36.5H24.86C24.7 31.62 25.7 27.22 27.86 23.3C30.1 19.38 33.38 16.3 37.7 14.06C42.1 11.74 47.38 10.58 53.54 10.58ZM45.62 100.46C42.02 100.46 39.06 99.42 36.74 97.34C34.5 95.18 33.38 92.54 33.38 89.42C33.38 86.22 34.5 83.54 36.74 81.38C39.06 79.22 42.02 78.14 45.62 78.14C49.14 78.14 52.02 79.22 54.26 81.38C56.58 83.54 57.74 86.22 57.74 89.42C57.74 92.54 56.58 95.18 54.26 97.34C52.02 99.42 49.14 100.46 45.62 100.46Z" fill="#51867C"/>
</svg>
