<?xml version="1.0" encoding="UTF-8"?>
<!DOCTYPE svg PUBLIC "-//W3C//DTD SVG 1.1//EN" "http://www.w3.org/Graphics/SVG/1.1/DTD/svg11.dtd">
<!-- Creator: CorelDRAW 2021 (64-Bit) -->
<svg xmlns="http://www.w3.org/2000/svg" xml:space="preserve" width="100%" height="100%" version="1.1" style="shape-rendering:geometricPrecision; text-rendering:geometricPrecision; image-rendering:optimizeQuality; fill-rule:evenodd; clip-rule:evenodd"
viewBox="0 0 6985.5 2770.3"
 xmlns:xlink="http://www.w3.org/1999/xlink"
 xmlns:xodm="http://www.corel.com/coreldraw/odm/2003">

 <g id="Layer_x0020_1">
  <metadata id="CorelCorpID_0Corel-Layer"/>
  <g id="_2416697150240">
   <rect class="fil0" fill="#1C387D"  x="-0" y="-0" width="6985.5" height="2770.3"/>
   <path class="fil1" fill="#FEFEFE"  d="M1422.03 1568.13c0,0 -48.91,-137.87 -168.29,-203.1 -337.33,-184.3 -617.84,228.86 -326.62,674.95 267.47,409.75 749.06,324.26 1008.41,-52.83 -142.96,526.48 -892.63,742.69 -1334.06,418.14 -562.06,-413.25 -530.6,-1477.1 280.07,-1472.3 239.21,1.41 480.33,135.22 540.49,635.15zm-357.61 -1276.11c167.13,0 302.6,140.7 302.6,314.27 0,173.57 -135.47,314.26 -302.6,314.26 -167.13,0 -302.6,-140.7 -302.6,-314.26 0,-173.57 135.47,-314.27 302.6,-314.27z"/>
   <path class="fil2" fill="#F7B630"  d="M1412.44 1631.11c101.56,-9.21 251.87,-36.73 247.99,127.48 -4.78,202.71 -332.44,326.8 -490.53,116.17 -45.33,-60.37 -71.36,-141.92 -70.71,-231.23 -87.38,246.4 145.17,549.91 404.76,553.07 163.16,2 300.86,-87.17 360.47,-206.3 117.15,-234.13 -72.56,-559.11 -451.99,-359.2zm532.11 -336.85c-69.69,-52.5 -167.15,-36.43 -217.7,35.93 -50.56,72.36 -35.07,173.58 34.59,226.1 69.69,52.51 167.15,36.43 217.72,-35.93 50.55,-72.36 35.07,-173.58 -34.6,-226.09z"/>
   <path class="fil3" fill="#F5B72F"  d="M4657.72 645.38c0,21.34 6.99,23.32 21.08,42.72 7.69,10.58 14.85,21.03 22.3,32.23 7.75,11.66 14.04,20.96 21.68,32.87 14.17,22.07 29.58,44.3 41.6,67.57l37.9 71.41c3.5,7.27 6.32,10.59 9.53,17.8 40.51,90.85 68.84,183.91 69.83,285.65 0.1,10.65 1.93,13.91 1.89,25.74l1.74 81.28 -2782.1 0 0 99.7 0 0.2c0.04,4.1 1.3,5.34 5.33,5.34l863.96 0 0 73.85c0,16.79 -1.78,25.98 -1.78,42.46 -11.62,2.81 -21.35,4.72 -33.01,8.18 -31.76,9.43 -60.67,20.12 -90.68,33.22 -19.97,8.72 -37.67,16.35 -57.05,25.67 -38.8,18.67 -30.7,24.63 -56.31,11.12 -22.39,-11.82 -41.98,-26.32 -64.54,-38.21l-43.31 -21.49c-90.82,-42.44 -194.55,-36.99 -285.69,0.5 -46.76,19.24 -89.94,47.34 -125.39,83.94l-19.38 22.33c-86.61,110.41 -90.26,257.93 -2.06,370.11 68.03,86.54 128.5,126.83 222.02,184.82 18.7,11.59 129.91,67.06 150.07,67.53 -6.4,-9.93 -29.59,-32.24 -39.37,-40.35l-82.84 -80.12c-13.77,-14.3 -26.2,-27.24 -40.02,-41.51 -26.04,-26.91 -48.63,-61.94 -67.42,-94.3 -19.48,-33.56 -37,-84.21 -37,-135.13 0,-64.43 33.64,-113.8 69.82,-158.26 7.65,-9.41 30.81,-26.98 41.14,-34.82 6.16,-4.67 12.42,-8.02 18.71,-11.95 5.82,-3.64 12.55,-7.95 19.06,-11.59 5.7,-3.19 13.78,-6.33 19.87,-8.9 49.75,-20.97 113.77,-20.22 165.79,-9.15 16.98,3.62 37.14,12.29 37.14,31.59 0,3.44 -20.66,37.29 -24.12,43.26 -27.11,46.78 -50.55,99.19 -50.55,156.13 39.54,21.72 87.19,36.49 128.49,54.87 9.4,4.18 34.17,16.9 43.95,17.13 2.47,-10.99 4.36,-22.57 7.1,-33.25 7.96,-31.03 17.8,-62.93 31.42,-91.07 13.47,-27.82 26.97,-52.86 45.27,-76.68 44.87,-58.41 101.19,-96.7 172.63,-112.41 68.4,-15.05 142.32,-16 202.6,23.17 5.61,3.64 14.11,10.81 18.79,15.57 4,4.06 4.72,5.18 8.26,9.88 22.79,30.27 25.91,47.3 25.91,87.56 0,27.69 -10.04,55.07 -18.27,75.19 -8.55,20.9 -21.54,41.84 -34.5,58.33 -7.72,9.82 -11.89,15.82 -20.59,24.78 -8.04,8.28 -13.69,17.39 -22.64,24.49 -12.46,9.87 -27.61,26.09 -49.26,43 -65.57,51.25 -178.7,108.39 -260.06,108.39 2.22,8.64 66.83,72.16 76.89,82.62 11.68,12.14 60.89,60.75 75.96,68.98 13.17,7.2 36.81,-12.24 52.15,-21.78 49.79,-30.99 76.46,-47.91 119.9,-89.64l16.24 -16.37c0.27,-0.26 0.65,-0.64 0.91,-0.91 23.83,-24.75 42.82,-52.94 61.16,-82.33 25.56,-40.96 45.87,-93.08 53.69,-141.79 14.87,-92.7 -1.7,-210.3 -54.67,-271.89l-32.06 -33.17c-5.33,-4.87 -12.59,-10.25 -18.18,-14.35 -6.08,-4.47 -12.58,-8.98 -19.2,-13.29 -7.29,-4.75 -12.7,-7.5 -20.47,-11.98l-43.11 -21.69c-7.93,-3.43 -16.82,-6.77 -23.87,-10.29l-1.78 -120 412.43 0 0 221.55c0,8.46 -26.78,25.22 -32.58,32.63 -5.25,6.71 -2.98,20.69 -2.98,30.14 0,11.69 0,23.39 0,35.08 13.43,-1.16 61.54,-22.46 74.87,-27.48 25.41,-9.56 48.49,-20.26 75.59,-28.57 75.4,-23.13 129.92,-28.87 215.74,-28.87 50.86,0 83.27,12.93 118.7,46.58 4,3.8 4.89,5.33 8.27,9.87 24.96,33.54 17.03,8.28 17.03,96.78l-38.5 -20.94c-125.24,-65.58 -303.93,-33.42 -415.52,44.2l-35.07 26.35c-3.97,3.28 -8.09,6.35 -11.79,9.91 -69.92,67.3 -126.3,160.68 -65.87,257.69 95.74,153.7 338.06,165.28 484.98,88.96l36.14 -19.7c10.84,-6.06 25.18,-16.27 36.75,-19.07 6.9,10.7 8.89,17.35 8.89,35.08 12.69,3.52 102.04,60.07 133.33,62.77 0,-32.4 2.13,-424.44 -0.26,-446.52 -6.83,-63.24 0.42,-102.07 -25.38,-165.65 -13.33,-32.86 -25.81,-52.35 -50.34,-75.1 -18.65,-17.3 -53.26,-36 -80.44,-43.85 -74.62,-21.54 -158.36,-16.74 -234.21,-1.36l-73.35 17.98c-8.14,2.34 -15.06,5.44 -23.1,7.39 -6.31,-4.39 -3.88,-6.65 -12.44,-7.39l0 -138.47 248.19 0 997.98 0 0 337.86c-12.66,-8.8 -21.59,-23.42 -32.44,-34.61l-32.89 -36c-33.53,-34.82 -89.49,-96.81 -130.75,-122.69 -78.21,-49.04 -176.15,-44.14 -256.05,-3.02 -33.96,17.48 -62.28,43 -88.73,70.32 -13.31,13.75 -24.39,28.73 -35.63,44.23 -23.22,32.04 -42.89,65.33 -56.64,103.65 -23.8,66.34 -20,116.23 5.32,181.5l39.38 75.41c14.69,22.98 33.03,43.42 49.52,64.89 29.67,38.63 105.72,97.14 148.4,119.12 38.06,19.61 72.24,32.23 114.85,35.83 48.25,4.06 88.15,-10.07 121.02,-27.8 15.94,-8.61 30.67,-20.46 44.45,-31.38 17.33,-13.74 33.05,-29.8 48.44,-45.7 13.74,-14.2 56.22,-70.13 61.75,-74.34l0 123.7c12.82,3.1 25.77,10.74 37.82,16.1 16.2,7.21 105.75,49.56 115.06,50.36l1.78 -847.42 499.53 0c4.1,0 5.33,-1.28 5.33,-5.54l0 -99.7 -504.87 0c0,-77.64 -4.78,-159.66 -14.74,-230.24 -8.07,-57.21 -24.28,-125.89 -43.98,-172.19 -26.41,-62.08 -55.09,-120.07 -90.61,-175.44 -6.59,-10.28 -59.83,-90.47 -71.11,-90.47l-154.66 0c-5.46,0 -7.11,5.41 -7.11,11.08z"/>
   <path class="fil3" fill="#F5B72F"  d="M5740.34 1402.34c0,4.26 1.24,5.54 5.33,5.54l145.77 0 0 474.48c0,92.8 22.44,175.56 82.25,239.52 10.09,10.78 5.09,9.78 24.68,26.07l18.06 16.31c12.52,10.58 25.33,19.13 38.54,28.29 5.96,4.13 14.82,9.39 21.33,12.93 66.2,35.9 117.48,41.03 190.3,38.81 32.84,-1 77.98,-13.8 107.65,-26.67 4.65,-2.02 6.41,-3.21 10.79,-5.41 4.86,-2.44 7.77,-3.06 12.48,-5.5 4.76,-2.48 5.24,-3.5 10.05,-6.18 42.28,-23.61 55.31,-36.12 91.85,-61.54l0 68.31c6.56,3.6 13.46,6.22 20.74,9.85l109.8 50.28c12.72,5.5 33.1,18.54 43.68,21.1l0 -738.49 -172.44 0 0 356.32c0,36.93 -14.7,81.07 -27.93,113.16 -14.34,34.78 -30.93,59.89 -52.81,89.15 -4.14,5.54 -11.6,13.27 -16.6,17.84l-19.47 16.7c-13.34,10.28 -26.52,20.42 -41.95,28.44 -32.43,16.83 -70.15,26.42 -116.78,26.42 -116.96,0 -172.44,-133.49 -172.44,-238.17l0 -552.02 695.08 0c4.03,0 5.29,-1.24 5.33,-5.34l0 -0.2 0 -99.7 -1013.29 0 0 99.7z"/>
   <path class="fil3" fill="#F5B72F"  d="M5569.69 2192.53l53.31 27.72c6.31,3.42 12.25,6.02 18.99,9.82 3.87,2.18 4.85,3.24 7.8,4.82 13.73,7.39 57.16,31.3 65.67,31.49l0 -1059.74c0,-121.05 -35.48,-260.8 -89.47,-364.95l-77.88 -118.51c-4.82,-6.2 -8.71,-9.75 -13.22,-15.81 -4.93,-6.62 -7.37,-8.72 -12.74,-14.46 -7.64,-8.19 -5.24,-9 -19.92,-8.85l-167.19 0.09c1.77,6.87 6.59,9.61 11.13,14.28 5.45,5.6 7.14,9.33 12.39,14.83l37.19 42.61c4.35,5.63 7.67,9.67 11.95,15.28 39.02,51.17 78.05,108.28 102.32,168.82 63.42,158.16 59.68,214.29 59.68,375.58 0,292.32 0,584.64 0,876.96z"/>
   <path class="fil0" fill="#1C387D"  d="M4625.72 1646.09l-7.11 -0.04 -1.78 1.87 -5.33 -0.02 -1.78 1.87 -5.33 -0.03 -1.78 1.85 -3.56 0.01 -1.78 1.85 -3.56 -0.01 -1.78 1.85 -3.56 -0.01 -1.78 1.86 -1.78 0 -1.78 1.87 -3.56 -0.03 -1.78 1.85 -7.11 1.85 -1.78 1.88 -7.11 1.81 -1.78 1.85 -1.78 0 -1.78 1.87 -1.78 0 -1.78 1.85 -3.56 -0.03 -1.78 1.85 -1.78 0 -1.78 1.85 -1.78 0 -1.78 1.85 -1.78 0 -1.78 1.85 -1.78 0 -1.78 1.87 -1.78 0 -1.78 1.82 -1.78 0 -1.78 1.84 -1.78 0 -1.78 1.85 -1.78 0 -1.78 1.84 -3.56 1.87 -1.78 1.82 -1.78 0 -1.78 1.85 -3.56 1.87 -1.78 1.84 -1.78 0 -1.78 1.83 -3.55 1.86 -1.78 1.83 -3.56 1.89 -1.78 1.81 -3.56 1.89 -1.78 1.81 -3.56 1.87 -1.78 1.82 -1.78 1.84 -3.56 1.89 -1.78 1.8 -1.78 1.85 -3.56 1.87 -1.78 1.81 -1.78 1.85 -1.78 1.85 -5.33 3.71 -1.78 1.82 -1.78 1.85 -1.78 1.85 -8.89 7.4 -1.78 1.83 -1.78 1.85 -1.78 1.84 -1.78 1.85 -1.78 1.85 -1.78 1.85 -1.78 1.85 -1.78 1.85 -1.78 1.85 -1.78 1.85 -1.78 1.85 -1.78 1.85 -1.73 1.85 -7.15 9.23 -1.79 1.84 -1.78 1.85 -1.78 1.85 -1.78 1.85 -1.76 1.84 -1.78 3.69 -1.79 1.85 -1.76 1.85 -1.76 3.69 -1.81 1.85 -1.75 1.85 -1.8 3.69 -1.76 1.85 -1.8 3.69 -1.78 1.85 -1.78 3.69 -1.79 1.85 0 1.85 -1.76 1.84 0 1.85 -1.76 1.85 0 1.85 -1.79 1.85 0 1.85 -1.78 1.85 0 1.85 -1.81 1.85 0 1.85 -1.77 1.85 0 1.84 -1.78 1.85 0.04 3.69 -1.81 1.84 0 1.85 -1.79 1.85 -0 3.69 -1.78 1.85 0.03 3.69 -1.8 1.85 0.02 3.69 -1.8 1.85 0.03 5.54 -1.81 1.84 0.02 5.54 -1.79 1.84 0.02 7.39 -1.8 1.85 0.04 9.23 -1.81 3.69 0.04 14.77c-0.1,8.79 0.02,3.47 -1.83,5.54l0 22.15c0.24,0.37 0.67,0.44 0.72,1.09 0.06,0.69 0.52,0.94 0.59,1.24 0.51,2.43 0.48,2.46 0.49,5.05l-0.02 14.77 1.8 3.69 -0.03 9.23 1.8 1.85 -0.02 7.39 1.79 1.85 -0.02 5.54 1.81 1.85 -0.04 5.54 1.8 1.85 -0.01 3.69 1.81 1.85 -0.03 3.69 1.78 1.85 0 3.69 1.78 1.85 0 1.85 1.8 1.85 0 1.85 1.79 1.85 -0.02 3.69 1.78 1.84 0 1.85 1.78 1.85 0 1.85 1.77 1.84 1.82 3.69 1.76 1.85 0 1.84 1.76 1.85 0 1.85 1.77 1.85 1.8 1.85 0 1.85 1.76 1.85 1.78 3.69 1.78 1.85 1.78 1.85 1.8 3.69 1.76 1.85 1.77 1.85 3.61 5.54 1.73 1.85 1.78 1.85 1.78 1.85 1.78 1.85 1.78 1.85 1.78 1.85 1.78 1.85 1.78 1.81 7.11 5.57 1.78 1.85 1.78 1.81 3.56 1.85 1.78 1.87 1.78 1.85 3.56 1.84 1.78 1.82 1.78 0 1.78 1.85 3.56 1.87 1.78 1.84 1.78 0 1.78 1.85 1.78 0 1.78 1.85 1.78 0 1.78 1.85 3.56 -0.04 1.78 1.89 1.78 0 1.78 1.84 3.56 0 1.78 1.85 5.33 -0.02 1.78 1.86 5.33 -0 3.56 1.85 8.89 -0.04 3.55 1.89 23.11 -0 3.56 -1.87 10.67 0.04 3.56 -1.87 7.11 0.03 1.78 -1.85 5.33 -0 1.78 -1.89 5.33 0.05 1.78 -1.87 3.56 0.02 1.78 -1.86 3.56 0.01 1.78 -1.86 3.56 0.02 1.78 -1.84 1.78 0 1.78 -1.87 3.56 0.02 1.78 -1.84 1.78 0 1.78 -1.83 1.78 0 1.78 -1.87 1.78 0 1.78 -1.85 1.78 0 1.78 -1.83 1.78 0 1.78 -1.85 1.78 0 1.78 -1.83 1.78 0 1.78 -1.84 1.78 0 1.78 -1.85 3.56 -1.87 1.78 -1.81 1.78 0 1.78 -1.84 3.55 -1.85 1.78 -1.86 3.56 -1.87 1.78 -1.82 3.56 -1.86 1.78 -1.83 1.78 -1.86 3.56 -1.86 1.78 -1.81 3.56 -1.87 1.78 -1.83 1.78 -1.84 1.78 -1.85 3.56 -1.87 1.78 -1.82 1.78 -1.84 1.78 -1.87 3.56 -1.84 1.78 -1.83 1.78 -1.85 1.78 -1.85 7.11 -5.57 1.78 -1.81 1.78 -1.85 1.78 -1.84 1.78 -1.85 8.89 -7.41 1.78 -1.81 1.78 -1.85 1.78 -1.84 1.78 -1.85 1.78 -1.85 1.78 -1.85 1.78 -1.85 1.78 -1.85 1.78 -1.85 1.78 -1.85 1.78 -1.85 1.78 -1.85 1.78 -1.85 1.78 -1.84 1.78 -1.85 1.78 -1.85 1.78 -1.85 1.78 -1.84 1.78 -1.85 1.78 -1.85 1.76 -1.85 7.13 -9.23 1.77 -1.85 1.78 -1.85 1.78 -1.85 1.76 -1.85 3.57 -5.54 1.78 -1.84 1.78 -1.85 1.75 -1.85 3.58 -5.54 1.78 -1.85 1.76 -1.85 1.8 -3.69 1.78 -1.85 1.77 -1.85 1.79 -3.69 1.78 -1.85 1.76 -1.85 1.8 -3.69 1.78 -1.85 1.77 -1.84 0 -1.85 1.79 -1.85 1.76 -1.84 1.8 -3.69 1.77 -1.85 1.79 -3.69 1.78 -1.85 0 -1.85 1.78 -1.85 1.78 -1.85 0 -1.85 1.78 -1.85 0 -1.84 1.78 -1.85 1.78 -1.85 0 -1.85 1.75 -1.84 0 -1.85 1.76 -1.85 1.82 -3.69 1.77 -1.85 0 -1.85 1.78 -1.85 0 -1.85 1.75 -1.85 0 -1.85 1.78 -1.85 0 -1.85 1.78 -1.85c1.36,-2.48 1.15,-1.96 1.78,-5.54l1.78 -1.85 0 -1.85 1.76 -1.84 0 -1.85 1.8 -1.85 0 -1.85 1.79 -1.85 0 -1.85 1.78 -1.85 1.78 -7.39 1.77 -1.84 -0.02 -3.7 1.79 -1.85 0 -1.84 1.79 -1.85 -0.01 -3.7 1.79 -1.84 -0.05 -5.54 1.83 -1.85 -0 -3.69 1.78 -1.85 -0.02 -7.38 1.8 -1.85 -0.03 -14.77 0 -7.39 0.02 -12.92 -1.82 -1.85 0.05 -5.54 -1.79 -3.69 0 -3.69 -1.79 -1.85 0 -1.85 -1.79 -1.85 0.04 -3.69 -1.78 -1.85 0 -1.85 -1.78 -1.85 0 -1.85 -1.78 -1.85 0 -1.84 -1.78 -1.85 -1.77 -3.69 -1.78 -1.85 -1.8 -3.69 -1.75 -1.85 -3.58 -5.54 -1.76 -1.85 -1.77 -1.85 -3.58 -5.54 -1.76 -1.85 -1.78 -1.85 -1.78 -1.85 -1.78 -1.84 -1.78 -1.85 -1.78 -1.85 -1.78 -1.85 -1.78 -1.85 -1.78 -1.85 -1.78 -1.84 -5.33 -3.7 -1.78 -1.85 -1.78 -1.85 -1.78 -1.85 -1.78 -1.81 -5.33 -3.72 -1.78 -1.85 -1.78 -1.82 -3.56 -1.87 -1.78 -1.83 -3.56 -1.87 -1.78 -1.85 -3.56 -1.85 -1.78 -1.83 -1.78 0 -1.78 -1.84 -7.11 -3.72 -1.78 -1.84 -1.78 0 -1.78 -1.85 -7.11 -1.83 -1.78 -1.86 -1.78 0 -1.78 -1.86 -3.55 0.03 -1.78 -1.87 -3.56 0.03 -1.78 -1.88 -3.56 0.02 -1.78 -1.87 -3.56 0.03 -1.78 -1.87 -5.33 0.04 -1.78 -1.88 -5.33 0.03 -1.78 -1.87 -7.11 0.01 -3.55 -1.85 -8.89 0.03 -3.56 -1.87 -40.89 0 -1.78 1.89z"/>
   <path class="fil0" fill="#1C387D"  d="M3758.2 1865.77l-12.44 -0.02 -3.56 1.87 -8.89 -0.02 -3.56 1.86 -7.11 -0 -1.78 1.86 -5.33 -0.02 -3.56 1.87 -5.33 -0.02 -1.78 1.84 -5.33 0.01 -1.78 1.86 -3.56 -0.02 -1.78 1.86 -5.33 -0.02 -1.78 1.85 -3.56 0 -1.78 1.84 -3.56 0 -1.78 1.87 -3.56 -0.02 -1.78 1.84 -1.78 0 -1.78 1.85 -3.56 0.01 -1.78 1.85 -1.78 0 -1.78 1.87 -7.11 1.83 -1.78 1.85 -1.78 0 -1.78 1.84 -1.78 0 -1.78 1.84 -1.78 0 -1.78 1.85 -1.78 0 -1.78 1.84 -1.78 0 -1.78 1.84 -1.78 0 -1.78 1.85 -1.78 0 -1.78 1.84 -1.78 0 -1.78 1.84 -7.11 3.72 -1.78 1.81 -1.78 0 -1.78 1.85 -1.78 0 -1.78 1.85 -3.56 1.85 -1.78 1.85 -1.78 0 -1.78 1.84 -1.78 1.87 -1.78 0 -1.78 1.83 -3.56 1.85 -1.78 1.84 -3.56 1.87 -1.78 1.81 -3.56 1.87 -1.78 1.83 -1.78 1.84 -3.56 1.89 -1.78 1.81 -1.78 1.85 -3.56 1.89 -1.78 1.8 -1.78 1.85 -5.33 3.74 -1.78 1.8 -1.78 1.85 -1.78 1.85 -1.78 1.85 -8.89 7.41 -1.78 1.82 -1.78 1.85 -1.78 1.85 -1.78 1.84 -1.78 1.85 -1.78 1.85 -1.75 1.84 -7.14 9.23 -1.77 1.85 -1.78 1.85 -1.75 1.85 -3.58 5.54 -1.78 1.85 -1.76 1.85 -1.79 3.69 -1.78 1.84 -1.76 1.85 -1.8 3.7 -1.78 1.84 -1.77 1.85 0 1.85 -1.79 1.85 -1.77 1.85 0 1.85 -1.76 1.85 -1.81 3.69 -1.77 1.85 0 1.85 -1.75 1.84 0 1.85 -1.8 1.85 0 1.85 -1.79 1.84 0 1.85 -1.78 1.85 0 1.85 -1.77 1.84 -0.01 3.69 -1.77 1.85 0.01 5.54 -1.79 1.85 0.02 9.23 0.01 3.7 -0.03 3.69 1.8 1.85 -0.02 3.69 1.78 1.85 1.8 3.69 1.76 1.85 0 1.85 1.78 1.85 1.78 1.84 10.66 11.08 1.78 1.85 1.78 1.81 3.56 1.88 1.78 1.84 1.78 0 1.78 1.85 1.78 0 1.78 1.83 1.78 0 1.78 1.87 1.78 0 1.78 1.85 3.56 -0.02 1.78 1.85 3.56 -0.02 1.78 1.87 3.56 0 3.56 1.85 3.56 0.02 3.56 1.83 5.33 -0.04 1.78 1.89 7.11 -0.02 3.55 1.87 8.89 -0.04 3.56 1.87 14.22 -0.03c0.78,0 3.13,0.06 3.43,0.15 3.19,0.97 1.93,0.54 3.68,1.73l39.11 0c1.9,-1.25 0.05,-1.04 3.71,-1.69 1.5,-0.26 3.62,-0.18 5.18,-0.19l21.33 0.04 3.56 -1.87 12.44 0.02 3.56 -1.9 10.67 0.05 3.56 -1.85 7.11 0 3.56 -1.85 7.11 0 1.78 -1.89 7.11 0.05 1.78 -1.88 5.33 0.04 1.78 -1.9 5.33 0.04 3.56 -1.85 3.56 0 1.78 -1.86 5.33 0.02 1.78 -1.86 3.56 0.02 1.78 -1.87 3.56 0.02 1.78 -1.87 5.33 0.02 1.78 -1.85 3.56 0.01 1.78 -1.84 3.56 0 1.78 -1.87 3.55 0.01 1.78 -1.87 3.56 0.02 1.78 -1.86 3.56 0.02 1.78 -1.88 3.55 0.03 1.78 -1.87 3.56 0.02 1.78 -1.85 1.78 0 1.78 -1.86 3.56 0.02 1.78 -1.85 1.78 0 1.78 -1.87 3.56 0.02 1.78 -1.84 1.78 0 1.78 -1.87 1.78 0 1.78 -1.85 3.56 0.03 1.78 -1.85 1.78 0 1.78 -1.85 1.78 0 1.78 -1.87 1.78 0 1.78 -1.82 1.78 0 1.78 -1.84 1.78 0 1.78 -1.85 1.78 0 1.78 -1.86 1.78 0 1.78 -1.86 1.78 0 1.78 -1.84 1.78 0 1.78 -1.85 1.78 0 1.78 -1.83 7.11 -3.71 1.78 -1.83 1.78 0 1.78 -1.84 3.56 -1.87 1.78 -1.85 1.78 0 1.78 -1.82 1.78 0 1.78 -1.85 3.56 -1.86 1.78 -1.84 1.78 0 1.78 -1.83 1.78 -1.87 1.78 0 1.78 -1.83 3.56 -1.85 1.78 -1.83 3.56 -1.89 1.78 -1.8 3.56 -1.86 1.78 -1.83 3.56 -1.85 1.78 -1.85 1.78 -1.85 3.56 -1.86 1.78 -1.83 1.78 -1.85 5.33 -3.72 1.78 -1.82 1.78 -1.85 1.78 -1.85 8.89 -7.4 1.78 -1.82 1.78 -1.85 1.78 -1.85 1.78 -1.85 1.78 -1.85 1.78 -1.85 1.78 -1.85 1.75 -1.85 7.13 -9.23 1.78 -1.85 1.78 -1.85 1.78 -1.84 1.74 -1.85 3.58 -5.54 1.78 -1.85 1.78 -1.85 1.76 -3.69 1.79 -1.85 0 -1.85 1.77 -1.85 0 -1.85 1.78 -1.85 0 -3.69 -1.8 -3.69 0.02 -5.54 -1.77 -1.85 0 -1.84 -1.79 -1.85 0 -1.85 -1.77 -1.85 -1.78 -1.85 -3.59 -5.54 -1.73 -1.8 -7.11 -5.57 -1.78 -1.83 -3.56 -1.87 -1.78 -1.83 -3.55 -1.87 -1.78 -1.85 -1.78 0 -1.78 -1.83 -1.78 0 -1.78 -1.84 -1.78 0 -1.78 -1.85 -1.78 0 -1.78 -1.84 -3.56 0.04 -1.78 -1.88 -1.78 0 -1.78 -1.85 -3.56 0.01 -1.78 -1.86 -1.78 0 -1.78 -1.85 -3.56 0.02 -1.78 -1.86 -3.55 -0.01 -1.78 -1.84 -5.33 0.01 -1.78 -1.87 -3.56 0.02 -1.78 -1.86 -3.56 0 -1.78 -1.85 -5.33 0.02 -1.78 -1.86 -3.56 0 -1.78 -1.85 -3.56 0.01 -1.78 -1.85 -5.33 0.03 -1.78 -1.87 -3.56 0.01 -1.78 -1.86 -5.33 0.01 -1.78 -1.85 -5.33 0.01 -1.78 -1.86 -5.33 0.02 -1.78 -1.87 -5.33 0.04 -1.78 -1.89 -5.33 0.03 -3.56 -1.87 -5.33 0.02 -1.78 -1.87 -7.11 0.02 -3.56 -1.86 -8.89 0.02 -3.56 -1.88 -49.78 0c-1.96,1.89 3.09,1.81 -5.33,1.87z"/>
   <path class="fil3" fill="#F5B72F"  d="M5230.14 2185.14c7.97,1.93 61.55,34.42 70.52,39.39 6.16,3.41 10.8,6.21 17.15,9.87 10.61,6.12 45.7,27.99 54.54,30.13l0 -751.42 -142.22 0 0 672.03z"/>
   <path class="fil3" fill="#F5B72F"  d="M5109.26 852.16c0,3.91 20.47,42.45 26.43,57.48 12.72,32.06 15.65,71.3 38.27,89.49 19.54,15.71 34.89,18.39 58.31,24.37 38.83,9.92 54.61,17.06 73.76,52.63l64.46 126.91c3.24,6.85 2.94,8.12 11.67,10.04 14.5,3.19 23.22,2.3 36.41,-0.9 0,-13.06 0.26,-27.04 -2.59,-37.93l-12.82 -29.15c-22.96,-49.65 -43,-130.03 -61.69,-185.17 -7.4,-21.83 -17.33,-35.96 -32.84,-48.98 -13.57,-11.39 -33.52,-23.77 -50.3,-30.83 -9.73,-4.1 -16.99,-7.79 -27.44,-12.13 -17.58,-7.3 -79.62,-32.44 -91.42,-32.44l-30.22 0 0 16.62z"/>
  </g>
 </g>
</svg>
