<?xml version="1.0" encoding="UTF-8"?>
<!DOCTYPE svg PUBLIC "-//W3C//DTD SVG 1.1//EN" "http://www.w3.org/Graphics/SVG/1.1/DTD/svg11.dtd">
<!-- Creator: CorelDRAW 2021 (64-Bit) -->
<svg xmlns="http://www.w3.org/2000/svg" xml:space="preserve" width="100%" height="100%" version="1.1" style="shape-rendering:geometricPrecision; text-rendering:geometricPrecision; image-rendering:optimizeQuality; fill-rule:evenodd; clip-rule:evenodd"
viewBox="0 0 4650 1654"
 xmlns:xlink="http://www.w3.org/1999/xlink"
 xmlns:xodm="http://www.corel.com/coreldraw/odm/2003">

 <g id="Layer_x0020_1">
  <metadata id="CorelCorpID_0Corel-Layer"/>
  <path class="fil0" fill="#F5B72F" d="M2531.64 73.45c0,18.84 6.17,20.59 18.61,37.71 6.79,9.35 13.11,18.57 19.68,28.45 6.84,10.29 12.4,18.51 19.14,29.01 12.51,19.48 26.11,39.1 36.72,59.64l33.46 63.04c3.09,6.42 5.57,9.34 8.41,15.71 35.76,80.19 60.77,162.33 61.63,252.14 0.09,9.39 1.7,12.28 1.67,22.72l1.53 71.74 -2455.74 0 0 88 0 0.17c0.04,3.61 1.15,4.72 4.71,4.72l762.61 0 0 65.19c0,14.82 -1.57,22.94 -1.57,37.48 -10.26,2.48 -18.85,4.17 -29.14,7.22 -28.04,8.32 -53.55,17.76 -80.04,29.32 -17.63,7.69 -33.25,14.43 -50.36,22.66 -34.24,16.48 -27.1,21.74 -49.7,9.81 -19.77,-10.44 -37.05,-23.23 -56.97,-33.73l-38.22 -18.97c-80.17,-37.46 -171.73,-32.65 -252.17,0.44 -41.28,16.98 -79.39,41.79 -110.68,74.09l-17.11 19.71c-76.45,97.46 -79.68,227.67 -1.82,326.7 60.05,76.39 113.43,111.95 195.98,163.14 16.5,10.23 114.67,59.2 132.47,59.61 -5.65,-8.76 -26.12,-28.46 -34.75,-35.61l-73.13 -70.72c-12.15,-12.63 -23.13,-24.04 -35.33,-36.65 -22.98,-23.75 -42.93,-54.68 -59.51,-83.24 -17.2,-29.62 -32.66,-74.33 -32.66,-119.27 0,-56.88 29.69,-100.45 61.63,-139.7 6.76,-8.3 27.19,-23.81 36.31,-30.74 5.44,-4.13 10.96,-7.07 16.52,-10.54 5.14,-3.22 11.08,-7.02 16.83,-10.23 5.03,-2.81 12.16,-5.59 17.54,-7.86 43.91,-18.51 100.43,-17.85 146.35,-8.07 14.99,3.2 32.78,10.85 32.78,27.88 0,3.04 -18.23,32.91 -21.29,38.19 -23.93,41.3 -44.62,87.56 -44.62,137.81 34.9,19.18 76.96,32.21 113.42,48.44 8.3,3.69 30.16,14.92 38.79,15.12 2.18,-9.7 3.85,-19.93 6.27,-29.35 7.02,-27.39 15.71,-55.54 27.73,-80.39 11.89,-24.56 23.81,-46.66 39.96,-67.69 39.61,-51.56 89.33,-85.36 152.39,-99.23 60.37,-13.28 125.62,-14.12 178.83,20.45 4.95,3.21 12.46,9.54 16.59,13.74 3.53,3.59 4.17,4.57 7.29,8.72 20.12,26.72 22.87,41.75 22.87,77.29 0,24.44 -8.86,48.61 -16.13,66.37 -7.55,18.44 -19.01,36.93 -30.45,51.48 -6.81,8.67 -10.5,13.96 -18.17,21.87 -7.1,7.31 -12.08,15.35 -19.98,21.62 -11,8.72 -24.37,23.02 -43.48,37.96 -57.89,45.24 -157.74,95.68 -229.56,95.68 1.96,7.63 58.99,63.7 67.87,72.93 10.31,10.71 53.74,53.62 67.05,60.89 11.63,6.35 32.49,-10.8 46.03,-19.22 43.95,-27.35 67.49,-42.29 105.84,-79.13l14.33 -14.44c0.23,-0.23 0.57,-0.57 0.8,-0.8 21.04,-21.85 37.8,-46.73 53.99,-72.67 22.56,-36.15 40.49,-82.17 47.39,-125.16 13.12,-81.82 -1.5,-185.63 -48.26,-240l-28.3 -29.28c-4.71,-4.3 -11.11,-9.05 -16.05,-12.67 -5.37,-3.94 -11.11,-7.92 -16.95,-11.73 -6.43,-4.19 -11.22,-6.62 -18.07,-10.57l-38.06 -19.15c-7,-3.03 -14.85,-5.97 -21.07,-9.08l-1.57 -105.93 364.05 0 0 195.56c0,7.46 -23.63,22.26 -28.76,28.8 -4.64,5.92 -2.63,18.26 -2.63,26.61 0,10.32 0,20.64 0,30.96 11.85,-1.02 54.31,-19.82 66.08,-24.26 22.43,-8.44 42.8,-17.88 66.73,-25.22 66.56,-20.41 114.68,-25.49 190.43,-25.49 44.9,0 73.51,11.42 104.78,41.11 3.53,3.35 4.32,4.71 7.3,8.72 22.04,29.61 15.03,7.31 15.03,85.43l-33.98 -18.48c-110.55,-57.89 -268.28,-29.5 -366.78,39.01l-30.96 23.26c-3.5,2.89 -7.14,5.61 -10.41,8.75 -61.72,59.4 -111.49,141.83 -58.14,227.46 84.51,135.67 298.41,145.89 428.09,78.52l31.9 -17.39c9.56,-5.35 22.22,-14.36 32.43,-16.83 6.09,9.44 7.85,15.31 7.85,30.96 11.2,3.11 90.07,53.02 117.69,55.41 0,-28.6 1.88,-374.65 -0.23,-394.14 -6.04,-55.81 0.37,-90.09 -22.4,-146.22 -11.77,-29.01 -22.79,-46.21 -44.44,-66.3 -16.46,-15.27 -47.01,-31.77 -71.01,-38.7 -65.86,-19.02 -139.78,-14.78 -206.73,-1.2l-64.75 15.87c-7.19,2.07 -13.29,4.81 -20.39,6.53 -5.57,-3.88 -3.42,-5.87 -10.98,-6.52l0 -122.22 219.07 0 880.91 0 0 298.22c-11.17,-7.77 -19.06,-20.67 -28.64,-30.55l-29.03 -31.78c-29.59,-30.74 -78.99,-85.46 -115.41,-108.29 -69.04,-43.29 -155.48,-38.96 -226.02,-2.67 -29.97,15.43 -54.97,37.95 -78.32,62.07 -11.75,12.14 -21.53,25.36 -31.45,39.05 -20.5,28.28 -37.86,57.66 -49.99,91.49 -21,58.56 -17.65,102.6 4.7,160.21l34.76 66.57c12.97,20.29 29.16,38.33 43.71,57.28 26.19,34.09 93.32,85.74 131,105.15 33.6,17.31 63.76,28.45 101.38,31.62 42.59,3.59 77.81,-8.89 106.81,-24.54 14.07,-7.59 27.08,-18.06 39.24,-27.7 15.3,-12.13 29.17,-26.3 42.76,-40.34 12.13,-12.54 49.62,-61.9 54.5,-65.62l0 109.19c11.32,2.74 22.75,9.48 33.39,14.22 14.29,6.36 93.34,43.74 101.56,44.45l1.57 -748.01 440.93 0c3.62,0 4.71,-1.13 4.71,-4.89l0 -88 -445.64 0c0,-68.53 -4.22,-140.93 -13.01,-203.23 -7.13,-50.5 -21.43,-111.12 -38.81,-151.99 -23.31,-54.8 -48.63,-105.99 -79.99,-154.86 -5.82,-9.07 -52.81,-79.85 -62.76,-79.85l-136.52 0c-4.82,0 -6.28,4.78 -6.28,9.78z"/>
  <path class="fil0" fill="#F5B72F" d="M3487.26 741.61c0,3.76 1.09,4.89 4.7,4.89l128.67 0 0 418.82c0,81.91 19.81,154.97 72.6,211.42 8.91,9.52 4.49,8.64 21.78,23.01l15.94 14.41c11.05,9.34 22.36,16.89 34.02,24.97 5.26,3.65 13.08,8.3 18.83,11.41 58.44,31.69 103.7,36.22 167.97,34.26 28.99,-0.88 68.84,-12.17 95.02,-23.54 4.11,-1.78 5.66,-2.83 9.52,-4.78 4.3,-2.15 6.86,-2.7 11.02,-4.85 4.21,-2.19 4.63,-3.09 8.87,-5.46 37.33,-20.84 48.83,-31.88 81.08,-54.31l0 60.3c5.79,3.18 11.88,5.49 18.3,8.69l96.92 44.39c11.23,4.86 29.22,16.37 38.56,18.63l0 -651.86 -152.21 0 0 314.52c0,32.59 -12.97,71.56 -24.65,99.88 -12.66,30.7 -27.31,52.87 -46.62,78.7 -3.65,4.89 -10.24,11.72 -14.65,15.75l-17.19 14.74c-11.78,9.08 -23.41,18.03 -37.03,25.1 -28.63,14.86 -61.92,23.32 -103.08,23.32 -103.24,0 -152.2,-117.83 -152.2,-210.22l0 -487.27 613.54 0c3.56,0 4.67,-1.1 4.71,-4.72l0 -0.17 0 -88 -894.42 0 0 88z"/>
  <path class="fil0" fill="#F5B72F" d="M3336.62 1439.11l47.06 24.46c5.57,3.02 10.81,5.31 16.76,8.67 3.42,1.93 4.28,2.85 6.89,4.26 12.12,6.52 50.46,27.63 57.96,27.8l0 -935.43c0,-106.85 -31.32,-230.21 -78.97,-322.14l-68.75 -104.61c-4.25,-5.47 -7.69,-8.61 -11.67,-13.95 -4.35,-5.85 -6.51,-7.7 -11.24,-12.77 -6.74,-7.23 -4.62,-7.94 -17.58,-7.81l-147.58 0.08c1.56,6.07 5.82,8.48 9.83,12.61 4.81,4.94 6.3,8.24 10.93,13.09l32.83 37.62c3.84,4.96 6.77,8.54 10.55,13.49 34.44,45.17 68.89,95.58 90.32,149.02 55.98,139.61 52.68,189.15 52.68,331.52 0,258.03 0,516.06 0,774.09z"/>
  <path class="fil1" fill="#000" d="M2503.39 956.77l-6.28 -0.04 -1.57 1.65 -4.71 -0.02 -1.57 1.65 -4.7 -0.02 -1.57 1.63 -3.14 0.01 -1.57 1.63 -3.14 -0.01 -1.57 1.63 -3.14 -0.01 -1.57 1.64 -1.57 0 -1.57 1.65 -3.14 -0.02 -1.57 1.63 -6.28 1.63 -1.57 1.66 -6.28 1.59 -1.57 1.63 -1.57 0 -1.57 1.65 -1.57 0 -1.57 1.63 -3.14 -0.03 -1.57 1.63 -1.57 0 -1.57 1.64 -1.57 0 -1.57 1.63 -1.57 0 -1.57 1.63 -1.57 0 -1.57 1.65 -1.57 0 -1.57 1.61 -1.57 0 -1.57 1.62 -1.57 0 -1.57 1.63 -1.57 0 -1.57 1.62 -3.14 1.66 -1.57 1.61 -1.57 0 -1.57 1.63 -3.14 1.65 -1.57 1.62 -1.57 0 -1.57 1.61 -3.14 1.64 -1.57 1.61 -3.14 1.67 -1.57 1.59 -3.14 1.66 -1.57 1.6 -3.14 1.65 -1.57 1.61 -1.57 1.63 -3.14 1.67 -1.57 1.59 -1.57 1.63 -3.14 1.65 -1.57 1.6 -1.57 1.63 -1.57 1.63 -4.7 3.28 -1.57 1.61 -1.57 1.63 -1.57 1.64 -7.85 6.53 -1.57 1.61 -1.57 1.63 -1.57 1.63 -1.57 1.63 -1.57 1.63 -1.57 1.63 -1.57 1.63 -1.57 1.63 -1.57 1.63 -1.57 1.63 -1.57 1.63 -1.57 1.63 -1.53 1.63 -6.31 8.15 -1.57 1.63 -1.57 1.63 -1.57 1.63 -1.57 1.63 -1.56 1.63 -1.57 3.26 -1.58 1.63 -1.55 1.63 -1.56 3.26 -1.6 1.63 -1.54 1.63 -1.59 3.26 -1.56 1.63 -1.58 3.26 -1.57 1.63 -1.57 3.26 -1.58 1.63 0 1.63 -1.55 1.63 0 1.63 -1.56 1.63 0 1.63 -1.58 1.63 0 1.63 -1.57 1.63 0 1.63 -1.6 1.63 0 1.63 -1.56 1.63 0 1.63 -1.57 1.63 0.04 3.26 -1.59 1.63 0 1.63 -1.58 1.63 -0 3.26 -1.57 1.63 0.03 3.26 -1.59 1.63 0.01 3.26 -1.58 1.63 0.02 4.89 -1.59 1.63 0.01 4.89 -1.58 1.63 0.02 6.52 -1.59 1.63 0.04 8.15 -1.6 3.26 0.04 13.04c-0.09,7.76 0.02,3.07 -1.61,4.89l0 19.56c0.2,0.33 0.59,0.39 0.64,0.97 0.05,0.6 0.46,0.83 0.52,1.09 0.45,2.15 0.43,2.17 0.43,4.46l-0.01 13.04 1.59 3.26 -0.02 8.15 1.59 1.63 -0.02 6.52 1.58 1.63 -0.02 4.89 1.6 1.63 -0.03 4.89 1.58 1.63 -0.01 3.26 1.59 1.63 -0.02 3.26 1.57 1.63 0 3.26 1.57 1.63 0 1.63 1.58 1.63 0 1.63 1.58 1.63 -0.02 3.26 1.57 1.63 0 1.63 1.57 1.63 0 1.63 1.56 1.63 1.61 3.26 1.56 1.63 0 1.63 1.56 1.63 0 1.63 1.56 1.63 1.58 1.63 0 1.63 1.55 1.63 1.57 3.26 1.57 1.63 1.57 1.63 1.58 3.26 1.55 1.63 1.57 1.63 3.18 4.89 1.53 1.63 1.57 1.63 1.57 1.63 1.57 1.63 1.57 1.63 1.57 1.63 1.57 1.63 1.57 1.6 6.28 4.92 1.57 1.63 1.57 1.6 3.14 1.64 1.57 1.65 1.57 1.63 3.14 1.63 1.57 1.61 1.57 0 1.57 1.63 3.14 1.65 1.57 1.62 1.57 0 1.57 1.63 1.57 0 1.57 1.63 1.57 0 1.57 1.63 3.14 -0.04 1.57 1.67 1.57 0 1.57 1.63 3.14 0 1.57 1.63 4.71 -0.01 1.57 1.64 4.71 -0 3.14 1.63 7.85 -0.04 3.14 1.67 20.4 -0 3.14 -1.65 9.42 0.04 3.14 -1.65 6.28 0.02 1.57 -1.63 4.7 -0 1.57 -1.67 4.71 0.04 1.57 -1.65 3.14 0.01 1.57 -1.64 3.14 0.01 1.57 -1.64 3.14 0.02 1.57 -1.63 1.57 0 1.57 -1.65 3.14 0.01 1.57 -1.63 1.57 0 1.57 -1.62 1.57 0 1.57 -1.65 1.57 0 1.57 -1.64 1.57 0 1.57 -1.62 1.57 0 1.57 -1.64 1.57 0 1.57 -1.61 1.57 0 1.57 -1.63 1.57 0 1.57 -1.63 3.14 -1.65 1.57 -1.6 1.57 0 1.57 -1.63 3.14 -1.63 1.57 -1.64 3.14 -1.65 1.57 -1.61 3.14 -1.64 1.57 -1.61 1.57 -1.64 3.14 -1.64 1.57 -1.6 3.14 -1.65 1.57 -1.61 1.57 -1.63 1.57 -1.63 3.14 -1.65 1.57 -1.61 1.57 -1.63 1.57 -1.65 3.14 -1.62 1.57 -1.62 1.57 -1.63 1.57 -1.64 6.28 -4.91 1.57 -1.6 1.57 -1.63 1.57 -1.63 1.57 -1.64 7.85 -6.54 1.57 -1.6 1.57 -1.63 1.57 -1.63 1.57 -1.63 1.57 -1.63 1.57 -1.63 1.57 -1.63 1.57 -1.63 1.57 -1.63 1.57 -1.63 1.57 -1.63 1.57 -1.63 1.57 -1.63 1.57 -1.63 1.57 -1.63 1.57 -1.63 1.57 -1.63 1.57 -1.63 1.57 -1.63 1.57 -1.63 1.56 -1.63 6.3 -8.15 1.56 -1.63 1.57 -1.63 1.57 -1.63 1.56 -1.63 3.15 -4.89 1.57 -1.63 1.57 -1.63 1.54 -1.63 3.17 -4.89 1.57 -1.63 1.55 -1.63 1.59 -3.26 1.57 -1.63 1.56 -1.63 1.57 -3.26 1.57 -1.63 1.56 -1.63 1.59 -3.26 1.56 -1.63 1.56 -1.63 0 -1.63 1.58 -1.63 1.55 -1.63 1.59 -3.26 1.56 -1.63 1.58 -3.26 1.57 -1.63 0 -1.63 1.57 -1.63 1.57 -1.63 0 -1.63 1.57 -1.63 0 -1.63 1.57 -1.63 1.57 -1.63 0 -1.63 1.55 -1.63 0 -1.63 1.55 -1.63 1.61 -3.26 1.56 -1.63 0 -1.63 1.57 -1.63 0 -1.63 1.54 -1.63 0 -1.63 1.57 -1.63 0 -1.63 1.57 -1.63c1.2,-2.19 1.01,-1.73 1.57,-4.89l1.57 -1.63 0 -1.63 1.56 -1.63 0 -1.63 1.59 -1.63 0 -1.63 1.57 -1.63 0 -1.63 1.57 -1.63 1.57 -6.52 1.56 -1.63 -0.02 -3.26 1.57 -1.63 0 -1.63 1.58 -1.63 -0.01 -3.26 1.58 -1.63 -0.04 -4.89 1.61 -1.63 0 -3.26 1.57 -1.63 -0.02 -6.52 1.59 -1.63 -0.03 -13.04 0 -6.52 0.02 -11.41 -1.61 -1.63 0.04 -4.89 -1.57 -3.26 0 -3.26 -1.58 -1.63 0 -1.63 -1.58 -1.63 0.04 -3.26 -1.57 -1.63 0 -1.63 -1.57 -1.63 0 -1.63 -1.57 -1.63 0 -1.63 -1.57 -1.63 -1.57 -3.26 -1.57 -1.63 -1.59 -3.26 -1.55 -1.63 -3.16 -4.89 -1.55 -1.63 -1.56 -1.63 -3.16 -4.89 -1.56 -1.63 -1.57 -1.63 -1.57 -1.63 -1.57 -1.63 -1.57 -1.63 -1.57 -1.63 -1.57 -1.63 -1.57 -1.63 -1.57 -1.63 -1.57 -1.62 -4.71 -3.27 -1.57 -1.63 -1.57 -1.63 -1.57 -1.63 -1.57 -1.61 -4.71 -3.28 -1.57 -1.63 -1.57 -1.61 -3.14 -1.65 -1.57 -1.61 -3.14 -1.65 -1.57 -1.63 -3.14 -1.63 -1.57 -1.61 -1.57 0 -1.57 -1.63 -6.28 -3.28 -1.57 -1.62 -1.57 0 -1.57 -1.63 -6.28 -1.61 -1.57 -1.65 -1.57 0 -1.57 -1.64 -3.14 0.03 -1.57 -1.65 -3.14 0.02 -1.57 -1.66 -3.14 0.02 -1.57 -1.65 -3.14 0.03 -1.57 -1.65 -4.71 0.03 -1.57 -1.66 -4.71 0.02 -1.57 -1.65 -6.28 0.01 -3.14 -1.63 -7.85 0.03 -3.14 -1.66 -36.09 0 -1.57 1.67z"/>
  <path class="fil1" fill="#000" d="M1737.64 1150.68l-10.98 -0.02 -3.13 1.65 -7.85 -0.02 -3.14 1.64 -6.28 -0 -1.57 1.65 -4.71 -0.02 -3.14 1.65 -4.71 -0.02 -1.57 1.62 -4.7 0.01 -1.57 1.65 -3.14 -0.02 -1.57 1.64 -4.71 -0.02 -1.57 1.63 -3.14 0 -1.57 1.62 -3.14 0 -1.57 1.65 -3.14 -0.02 -1.57 1.63 -1.57 0 -1.57 1.63 -3.14 0.01 -1.57 1.63 -1.57 0 -1.57 1.65 -6.28 1.61 -1.57 1.63 -1.57 0 -1.57 1.63 -1.57 0 -1.57 1.63 -1.57 0 -1.57 1.63 -1.57 0 -1.57 1.63 -1.57 0 -1.57 1.63 -1.57 0 -1.57 1.64 -1.57 0 -1.57 1.63 -1.57 0 -1.57 1.63 -6.28 3.29 -1.57 1.6 -1.57 0 -1.57 1.63 -1.57 0 -1.57 1.63 -3.14 1.63 -1.57 1.63 -1.57 0 -1.57 1.62 -1.57 1.65 -1.57 0 -1.57 1.61 -3.14 1.64 -1.57 1.63 -3.14 1.65 -1.57 1.6 -3.14 1.65 -1.57 1.61 -1.57 1.63 -3.14 1.67 -1.57 1.59 -1.57 1.63 -3.14 1.67 -1.57 1.59 -1.57 1.63 -4.7 3.3 -1.57 1.59 -1.57 1.63 -1.57 1.63 -1.57 1.63 -7.85 6.54 -1.57 1.61 -1.57 1.63 -1.57 1.63 -1.57 1.63 -1.57 1.63 -1.57 1.63 -1.55 1.63 -6.3 8.15 -1.56 1.63 -1.57 1.63 -1.54 1.63 -3.17 4.89 -1.57 1.63 -1.56 1.63 -1.58 3.26 -1.57 1.63 -1.56 1.63 -1.59 3.26 -1.56 1.63 -1.56 1.63 0 1.63 -1.58 1.63 -1.56 1.63 0 1.63 -1.55 1.63 -1.6 3.26 -1.56 1.63 0 1.63 -1.55 1.63 0 1.63 -1.59 1.63 0 1.63 -1.57 1.63 0 1.63 -1.57 1.63 0 1.63 -1.56 1.63 -0.01 3.26 -1.56 1.63 0.01 4.89 -1.58 1.63 0.02 8.15 0.01 3.26 -0.03 3.26 1.59 1.63 -0.02 3.26 1.57 1.63 1.59 3.26 1.55 1.63 0 1.63 1.57 1.63 1.57 1.63 9.41 9.78 1.57 1.63 1.57 1.6 3.14 1.66 1.57 1.62 1.57 0 1.57 1.63 1.57 0 1.57 1.61 1.57 0 1.57 1.65 1.57 0 1.57 1.63 3.14 -0.02 1.57 1.64 3.14 -0.02 1.57 1.65 3.14 0 3.14 1.63 3.14 0.01 3.14 1.61 4.71 -0.04 1.57 1.67 6.28 -0.02 3.14 1.65 7.85 -0.04 3.14 1.65 12.56 -0.03c0.69,0 2.76,0.05 3.03,0.13 2.81,0.85 1.7,0.48 3.24,1.53l34.52 0c1.68,-1.11 0.05,-0.92 3.28,-1.49 1.33,-0.23 3.2,-0.16 4.57,-0.17l18.83 0.03 3.14 -1.65 10.98 0.02 3.14 -1.68 9.42 0.04 3.13 -1.63 6.28 0 3.14 -1.63 6.28 0 1.57 -1.67 6.28 0.04 1.57 -1.66 4.7 0.03 1.57 -1.67 4.7 0.04 3.14 -1.63 3.14 0 1.57 -1.64 4.71 0.02 1.57 -1.64 3.14 0.02 1.57 -1.65 3.14 0.02 1.57 -1.65 4.71 0.02 1.57 -1.63 3.14 0.01 1.57 -1.63 3.14 0 1.57 -1.65 3.14 0.01 1.57 -1.65 3.14 0.02 1.57 -1.64 3.14 0.02 1.57 -1.66 3.14 0.03 1.57 -1.65 3.14 0.02 1.57 -1.63 1.57 0 1.57 -1.65 3.14 0.02 1.57 -1.63 1.57 0 1.57 -1.65 3.14 0.01 1.57 -1.63 1.57 0 1.57 -1.65 1.57 0 1.57 -1.63 3.14 0.03 1.57 -1.63 1.57 0 1.57 -1.63 1.57 0 1.57 -1.65 1.57 0 1.57 -1.61 1.57 0 1.57 -1.63 1.57 0 1.57 -1.63 1.57 0 1.57 -1.64 1.57 0 1.57 -1.64 1.57 0 1.57 -1.62 1.57 0 1.57 -1.63 1.57 0 1.57 -1.62 6.28 -3.28 1.57 -1.61 1.57 0 1.57 -1.63 3.13 -1.65 1.57 -1.64 1.57 0 1.57 -1.61 1.57 0 1.57 -1.63 3.14 -1.64 1.57 -1.62 1.57 0 1.57 -1.62 1.57 -1.65 1.57 0 1.57 -1.61 3.14 -1.64 1.57 -1.61 3.14 -1.67 1.57 -1.59 3.14 -1.65 1.57 -1.61 3.14 -1.63 1.57 -1.63 1.57 -1.63 3.14 -1.64 1.57 -1.61 1.57 -1.63 4.71 -3.28 1.57 -1.6 1.57 -1.63 1.57 -1.64 7.85 -6.53 1.57 -1.61 1.57 -1.63 1.57 -1.63 1.57 -1.63 1.57 -1.63 1.57 -1.63 1.57 -1.63 1.55 -1.63 6.3 -8.15 1.57 -1.63 1.57 -1.63 1.57 -1.63 1.54 -1.63 3.17 -4.89 1.57 -1.63 1.57 -1.63 1.56 -3.26 1.57 -1.63 0 -1.63 1.56 -1.63 0 -1.63 1.57 -1.63 0 -3.26 -1.59 -3.26 0.02 -4.89 -1.56 -1.63 0 -1.63 -1.58 -1.63 0 -1.63 -1.56 -1.63 -1.57 -1.63 -3.17 -4.89 -1.53 -1.59 -6.28 -4.92 -1.57 -1.62 -3.14 -1.65 -1.57 -1.61 -3.14 -1.65 -1.57 -1.63 -1.57 0 -1.57 -1.62 -1.57 0 -1.57 -1.63 -1.57 0 -1.57 -1.64 -1.57 0 -1.57 -1.63 -3.14 0.04 -1.57 -1.66 -1.57 0 -1.57 -1.63 -3.14 0.01 -1.57 -1.64 -1.57 0 -1.57 -1.64 -3.14 0.02 -1.57 -1.64 -3.13 -0.01 -1.57 -1.63 -4.71 0.01 -1.57 -1.65 -3.14 0.02 -1.57 -1.64 -3.14 0 -1.57 -1.63 -4.7 0.02 -1.57 -1.65 -3.14 0 -1.57 -1.63 -3.14 0.01 -1.57 -1.64 -4.7 0.02 -1.57 -1.65 -3.14 0.01 -1.57 -1.65 -4.71 0.01 -1.57 -1.63 -4.7 0.01 -1.57 -1.64 -4.71 0.02 -1.57 -1.65 -4.71 0.03 -1.57 -1.67 -4.7 0.03 -3.14 -1.65 -4.71 0.02 -1.57 -1.65 -6.28 0.02 -3.14 -1.65 -7.85 0.02 -3.14 -1.66 -43.94 0.01c-1.74,1.67 2.73,1.6 -4.71,1.65z"/>
  <path class="fil0" fill="#F5B72F" d="M3036.91 1432.59c7.04,1.7 54.33,30.38 62.25,34.76 5.44,3.02 9.53,5.48 15.14,8.72 9.37,5.4 40.34,24.71 48.15,26.59l0 -663.27 -125.54 0 0 593.2z"/>
  <path class="fil0" fill="#F5B72F" d="M2930.21 255.98c0,3.45 18.07,37.47 23.33,50.73 11.23,28.3 13.81,62.93 33.78,78.99 17.24,13.87 30.8,16.23 51.47,21.51 34.28,8.75 48.2,15.06 65.11,46.46l56.9 112.02c2.86,6.04 2.59,7.17 10.3,8.87 12.8,2.81 20.5,2.02 32.15,-0.79 0,-11.53 0.22,-23.87 -2.28,-33.48l-11.31 -25.73c-20.27,-43.83 -37.95,-114.78 -54.46,-163.45 -6.54,-19.27 -15.3,-31.74 -28.99,-43.23 -11.98,-10.06 -29.59,-20.98 -44.4,-27.22 -8.59,-3.62 -15,-6.88 -24.22,-10.7 -15.52,-6.44 -70.28,-28.64 -80.7,-28.64l-26.68 0 0 14.67z"/>
 </g>
</svg>
