<?xml version="1.0" encoding="utf-8"?>
<!-- Generator: Adobe Illustrator 27.5.0, SVG Export Plug-In . SVG Version: 6.00 Build 0)  -->
<svg version="1.1" xmlns="http://www.w3.org/2000/svg" xmlns:xlink="http://www.w3.org/1999/xlink" x="0px" y="0px"
	 viewBox="0 0 500 500" style="enable-background:new 0 0 500 500;" xml:space="preserve">
<g id="Floor">
	<ellipse id="Floor_1_" style="fill:#F5F5F5;" cx="250" cy="352.378" rx="239.652" ry="134.694"/>
</g>
<g id="Shadows">
	<path id="Shadow_3_" style="fill:#E0E0E0;" d="M70.479,403.52l-43.285-24.864c-2.394-1.375-2.4-3.614-0.011-5.001l260.792-151.402
		c2.388-1.387,6.191-1.275,8.493,0.25l40.927,27.097c2.303,1.525,2.229,3.878-0.164,5.256L79.148,403.514
		C76.755,404.893,72.874,404.895,70.479,403.52z"/>
	<path id="Shadow_5_" style="fill:#E0E0E0;" d="M435.878,417.983c-18.872,10.895-49.469,10.895-68.34,0
		c-18.872-10.896-18.872-28.561,0-39.456c18.872-10.895,49.468-10.895,68.34,0C454.749,389.422,454.749,407.087,435.878,417.983z"/>
</g>
<g id="Clouds">
	<g id="Clouds_1_">
		<g id="XMLID_1335_">
			<path id="XMLID_1336_" style="fill:#EBEBEB;" d="M98.294,64.839l-6.818,3.936c0.034-0.305,0.057-0.607,0.057-0.902v-1.975
				c0-3.515-2.468-4.94-5.511-3.182c-1.233,0.712-2.367,1.839-3.285,3.159c-0.498-4.42-3.966-6.066-8.178-3.635
				c-4.554,2.629-8.246,9.023-8.246,14.282v2.955c0,1.362,0.252,2.509,0.698,3.423l-5.663,3.269
				c-1.689,0.975-3.057,3.346-3.057,5.295c0,1.95,1.369,2.74,3.057,1.765l36.945-21.33c1.688-0.975,3.057-3.346,3.057-5.295
				C101.351,64.655,99.982,63.864,98.294,64.839z"/>
		</g>
		<g id="XMLID_1242_">
			<path id="XMLID_1334_" style="fill:#EBEBEB;" d="M144.342,73.689l-3.761,1.447V66.85c0-6.568-5.239-8.142-10.926-4.859l0,0
				c-5.688,3.284-10.299,11.27-10.299,17.838v1.203c-1.291-0.515-2.957-0.315-4.779,0.737l0,0c-4.093,2.363-7.411,8.11-7.411,12.836
				v0.547l-5.244,3.028c-2.695,1.556-4.881,5.341-4.881,8.453c0,3.112,2.185,4.374,4.881,2.818l42.42-24.491
				c2.695-1.556,4.881-5.341,4.881-8.453C149.223,73.394,147.038,72.132,144.342,73.689z"/>
		</g>
	</g>
</g>
<g id="Plants">
	<g id="Plants_11_">
		<g id="XMLID_1251_">
			<g id="XMLID_1006_">
				<path id="XMLID_1271_" style="fill:#27DEBF;" d="M422.269,367.199c0,0,1.346-11.843,7.237-21.034
					c5.891-9.191,13.985-14.928,21.538-15.525c7.552-0.598,13.652,6.351,5.571,11.123c-8.081,4.772-22.438,9.641-29.045,27.488
					L422.269,367.199z"/>
				<path id="XMLID_1007_" style="opacity:0.3;" d="M422.269,367.199c0,0,1.346-11.843,7.237-21.034
					c5.891-9.191,13.985-14.928,21.538-15.525c7.552-0.598,13.652,6.351,5.571,11.123c-8.081,4.772-22.438,9.641-29.045,27.488
					L422.269,367.199z"/>
			</g>
			<g id="XMLID_1252_">
				<path id="XMLID_1005_" style="fill:#FFFFFF;" d="M424.483,364.123c-0.027-0.005-0.054-0.012-0.08-0.023
					c-0.207-0.084-0.306-0.319-0.222-0.525c7.97-19.628,23.143-27.824,30.052-29.415c0.216-0.052,0.433,0.086,0.484,0.303
					c0.05,0.217-0.085,0.434-0.302,0.484c-6.769,1.559-21.641,9.612-29.487,28.933C424.855,364.059,424.667,364.157,424.483,364.123
					z"/>
			</g>
		</g>
		<g id="XMLID_1243_">
			<g id="XMLID_1248_">
				<g id="XMLID_1249_">
					<path id="XMLID_1250_" style="fill:#27DEBF;" d="M464.826,364.355c-0.684,1.542-2.366,2.344-3.933,2.975
						c-1.557,0.625-3.265,1.308-4.111,2.766c-1.705,2.944,1.094,7.084-0.736,9.951c-0.768,1.202-2.196,1.835-3.6,2.087
						c-1.167,0.218-2.355,0.217-3.538,0.316c-0.569-0.012-1.133-0.053-1.682-0.131c-1.623-0.236-3.385-0.312-4.872,0.519
						c-2.34,1.315-3.059,4.27-4.48,6.549c-1.704,2.728-4.717,4.514-7.883,4.945c-1.052,0.139-3.008,0.328-4.079-0.269
						c-0.084-0.046-0.153-0.09-0.221-0.141c-0.007-0.002-0.013-0.01-0.019-0.019c-0.147-0.166-0.332-0.377-0.411-0.492
						c-0.02-0.019-0.031-0.044-0.041-0.07c-0.415-1.527,0.263-3.116,0.289-4.693c0.003-0.1,0.004-0.192-0.002-0.286
						c-0.065-1.833-0.117-3.656-0.16-5.485c-0.086-3.365-0.124-6.737-0.101-10.104c0.023-2.188-0.241-4.582,0.685-6.642
						c1.025-2.266,3.573-2.316,4.537-4.54c0.386-0.886,0.591-1.836,0.964-2.732c1.114-2.628,3.814-4.518,6.672-4.658
						c4.448-0.226,8.441,3.376,12.885,3.049c1.151-0.09,2.272-0.44,3.406-0.649c3.604-0.674,7.768,0.351,9.795,3.401
						C465.036,361.276,465.446,362.956,464.826,364.355z"/>
				</g>
			</g>
			<g id="XMLID_979_" style="opacity:0.15;">
				<g id="XMLID_988_">
					<path id="XMLID_989_" d="M464.826,364.355c-0.684,1.542-2.366,2.344-3.933,2.975c-1.557,0.625-3.265,1.308-4.111,2.766
						c-1.705,2.944,1.094,7.084-0.736,9.951c-0.768,1.202-2.196,1.835-3.6,2.087c-1.167,0.218-2.355,0.217-3.538,0.316
						c-0.569-0.012-1.133-0.053-1.682-0.131c-1.623-0.236-3.385-0.312-4.872,0.519c-2.34,1.315-3.059,4.27-4.48,6.549
						c-1.704,2.728-4.717,4.514-7.883,4.945c-1.052,0.139-3.008,0.328-4.079-0.269c-0.084-0.046-0.153-0.09-0.221-0.141
						c-0.007-0.002-0.013-0.01-0.019-0.019c-0.147-0.166-0.332-0.377-0.411-0.492c-0.02-0.019-0.031-0.044-0.041-0.07
						c-0.415-1.527,0.263-3.116,0.289-4.693c0.003-0.1,0.004-0.192-0.002-0.286c-0.065-1.833-0.117-3.656-0.16-5.485
						c-0.086-3.365-0.124-6.737-0.101-10.104c0.023-2.188-0.241-4.582,0.685-6.642c1.025-2.266,3.573-2.316,4.537-4.54
						c0.386-0.886,0.591-1.836,0.964-2.732c1.114-2.628,3.814-4.518,6.672-4.658c4.448-0.226,8.441,3.376,12.885,3.049
						c1.151-0.09,2.272-0.44,3.406-0.649c3.604-0.674,7.768,0.351,9.795,3.401C465.036,361.276,465.446,362.956,464.826,364.355z"/>
				</g>
			</g>
			<g id="XMLID_1246_">
				<path id="XMLID_1247_" style="fill:#FFFFFF;" d="M424.854,386.334c-0.01-0.002-0.02-0.005-0.03-0.007
					c-0.202-0.053-0.323-0.262-0.268-0.464c6.147-23.063,30.446-26.396,36.132-25.986c0.206,0.017,0.366,0.197,0.351,0.406
					c-0.015,0.209-0.197,0.366-0.406,0.351c-5.561-0.401-29.33,2.859-35.345,25.424C425.237,386.252,425.047,386.37,424.854,386.334
					z"/>
			</g>
			<g id="XMLID_1244_">
				<path id="XMLID_1245_" style="fill:#FFFFFF;" d="M451.853,374.648c-0.073-0.013-0.144-0.049-0.201-0.106
					c-0.061-0.062-6.258-6.172-16.537-4.658c-0.207,0.028-0.4-0.113-0.431-0.32c-0.031-0.208,0.113-0.401,0.32-0.431
					c10.676-1.569,17.123,4.811,17.187,4.876c0.147,0.149,0.146,0.389-0.003,0.537C452.098,374.634,451.971,374.669,451.853,374.648
					z"/>
			</g>
		</g>
	</g>
	<g id="Plants_12_">
		<g id="XMLID_994_">
			<g id="XMLID_999_">
				<path id="XMLID_1000_" style="fill:#27DEBF;" d="M73.156,375.497c-1.326-7.62-2.232-21.934-10.962-33.997
					c-6.325-8.74-16.293-16.569-23.913-14.302c-7.097,2.111-5.829,13.362,2.418,19.792c8.247,6.429,18.889,15.452,23.725,31.98
					l7.152,11.65L73.156,375.497z"/>
			</g>
			<g id="XMLID_997_" style="opacity:0.3;">
				<path id="XMLID_998_" d="M73.156,375.497c-1.326-7.62-2.232-21.934-10.962-33.997c-6.325-8.74-16.293-16.569-23.913-14.302
					c-7.097,2.111-5.829,13.362,2.418,19.792c8.247,6.429,18.889,15.452,23.725,31.98l7.152,11.65L73.156,375.497z"/>
			</g>
			<g id="XMLID_995_">
				<path id="XMLID_996_" style="fill:#FFFFFF;" d="M71.484,381.302c-0.265,0-0.496-0.197-0.532-0.467
					c-2.868-21.827-13.032-38.601-29.393-48.508c-0.254-0.154-0.335-0.484-0.181-0.738c0.154-0.255,0.486-0.333,0.738-0.182
					c16.65,10.082,26.991,27.126,29.903,49.287c0.038,0.295-0.169,0.565-0.463,0.603C71.531,381.301,71.508,381.302,71.484,381.302z
					"/>
			</g>
		</g>
		<g id="XMLID_990_">
			<path id="XMLID_993_" style="fill:#27DEBF;" d="M70.816,391.884c0,0-4.21,4.849-12.152,7.191
				c-7.942,2.342-12.027-1.07-12.027-1.07s2.201-8.022,6.528-10.757c0,0-7.6,2.61-13.321,7.609c0,0-4.942,0.721-7.899-6.579
				c0,0,2.341-4.931,11.864-8.672c0,0-6.185-0.726-14.528,2.601c-0.613,0.341-4.647-9.07-6.069-13.469
				c-1.422-4.399,0.395-4.588,3.788-5.985c3.392-1.397,15.283-3.548,17.735-1.902c2.452,1.646,4.432,8.109,4.432,8.109
				s1.617-4.014,0.677-7.287c0,0,3.373-1.658,7.5-0.797c4.128,0.861,4.968,3.542,5.898,6.286c0.931,2.743,1.238,5.253,0.99,8.795
				c0,0,2.108-5.175,0.688-9.774c0,0,4.172,1.54,6.827,5.186C74.402,375.016,75.198,385.355,70.816,391.884z"/>
			<path id="XMLID_1001_" style="opacity:0.15;" d="M70.816,391.884c0,0-4.21,4.849-12.152,7.191
				c-7.942,2.342-12.027-1.07-12.027-1.07s2.201-8.022,6.528-10.757c0,0-7.6,2.61-13.321,7.609c0,0-4.942,0.721-7.899-6.579
				c0,0,2.341-4.931,11.864-8.672c0,0-6.185-0.726-14.528,2.601c-0.613,0.341-4.647-9.07-6.069-13.469
				c-1.422-4.399,0.395-4.588,3.788-5.985c3.392-1.397,15.283-3.548,17.735-1.902c2.452,1.646,4.432,8.109,4.432,8.109
				s1.617-4.014,0.677-7.287c0,0,3.373-1.658,7.5-0.797c4.128,0.861,4.968,3.542,5.898,6.286c0.931,2.743,1.238,5.253,0.99,8.795
				c0,0,2.108-5.175,0.688-9.774c0,0,4.172,1.54,6.827,5.186C74.402,375.016,75.198,385.355,70.816,391.884z"/>
			<g id="XMLID_991_">
				<path id="XMLID_992_" style="fill:#FFFFFF;" d="M70.815,392.422c-0.175,0-0.347-0.086-0.45-0.244
					c-8.305-12.726-34.658-25.333-43.582-25.891c-0.296-0.019-0.522-0.274-0.503-0.57c0.019-0.295,0.25-0.529,0.57-0.503
					c9.096,0.568,35.955,13.412,44.415,26.375c0.161,0.249,0.092,0.581-0.157,0.744C71.018,392.394,70.916,392.422,70.815,392.422z"
					/>
			</g>
		</g>
	</g>
</g>
<g id="Window_1_">
	<g id="Window_5_">
		<g id="Window">
			<path id="XMLID_4093_" style="fill:#27DEBF;" d="M335.866,48.996l-5.126-2.982L69.188,197.021v193.234
				c0,1.739,0.609,2.962,1.595,3.535l0,0l0.007,0.004l0,0l5.125,2.981v0c0.989,0.572,2.357,0.49,3.867-0.382L330.4,251.697
				c3.019-1.743,5.467-5.983,5.467-9.469L335.866,48.996z"/>
			<path id="XMLID_323_" style="opacity:0.15;" d="M335.866,48.996l-5.126-2.982L69.188,197.021v193.234
				c0,1.739,0.609,2.962,1.595,3.535l0,0l0.007,0.004l0,0l5.125,2.981v0c0.989,0.572,2.357,0.49,3.867-0.382L330.4,251.697
				c3.019-1.743,5.467-5.983,5.467-9.469L335.866,48.996z"/>
			<path style="fill:#27DEBF;" d="M75.836,396.732l-5.05-2.94c-0.99-0.58-1.6-1.8-1.6-3.54v-171.8l5.13,2.96v171.82
				C74.316,394.932,74.896,396.132,75.836,396.732z"/>
			<g style="opacity:0.65;">
				<path style="fill:#FFFFFF;" d="M75.836,396.732l-5.05-2.94c-0.99-0.58-1.6-1.8-1.6-3.54v-171.8l5.13,2.96v171.82
					C74.316,394.932,74.896,396.132,75.836,396.732z"/>
			</g>
			<path style="opacity:0.1;" d="M75.836,396.732l-5.05-2.94c-0.99-0.58-1.6-1.8-1.6-3.54v-171.8l5.13,2.96v171.82
				C74.316,394.932,74.896,396.132,75.836,396.732z"/>
			<g id="XMLID_4092_">
				<path style="fill:#27DEBF;" d="M74.314,393.237c0,3.486,2.448,4.9,5.467,3.156L330.4,251.697
					c3.019-1.743,5.467-5.983,5.467-9.469l-0.001-193.233L74.314,200.003V393.237z"/>
			</g>
			<g id="XMLID_322_" style="opacity:0.75;">
				<path style="fill:#FFFFFF;" d="M74.314,393.237c0,3.486,2.448,4.9,5.467,3.156L330.4,251.697
					c3.019-1.743,5.467-5.983,5.467-9.469l-0.001-193.233L74.314,200.003V393.237z"/>
			</g>
			<g id="XMLID_289_">
				<polygon id="XMLID_4078_" style="fill:#27DEBF;" points="74.314,200.003 74.314,221.413 335.864,70.408 335.866,48.996 				"/>
				<g>
					<path id="XMLID_4077_" style="fill:#FAFAFA;" d="M285.414,86.588l0.001,5.095c0,1.042,0.738,1.468,1.64,0.947l33.426-19.348
						l-0.001-8.883l-33.426,19.348C286.152,84.268,285.414,85.547,285.414,86.588z"/>
					<path id="XMLID_4076_" style="fill:#455A64;" d="M329.099,59.424c0.906-0.523,1.64-0.099,1.64,0.947v5.096
						c0,1.046-0.734,2.318-1.64,2.841l-8.617,4.975l-0.001-8.883L329.099,59.424z"/>
					<path id="XMLID_321_" style="fill:#FAFAFA;" d="M328.461,66.41l-0.962-0.3c0.099-0.408,0.154-0.827,0.154-1.239
						c0-0.983-0.319-1.731-0.876-2.053c-0.414-0.239-0.912-0.215-1.401,0.068c-1.077,0.622-1.921,2.377-1.921,3.997
						c0,0.983,0.319,1.731,0.876,2.053c0.189,0.109,0.395,0.163,0.609,0.163c0.256,0,0.525-0.077,0.791-0.231
						c0.647-0.374,1.206-1.16,1.553-2.078l0.963,0.3c0.036,0.011,0.071,0.016,0.106,0.016c0.152,0,0.293-0.097,0.34-0.251
						C328.754,66.669,328.649,66.469,328.461,66.41z M325.377,68.252c-0.267,0.155-0.498,0.178-0.688,0.068
						c-0.321-0.185-0.52-0.735-0.52-1.435c0-1.342,0.716-2.89,1.564-3.38c0.157-0.09,0.301-0.136,0.432-0.136
						c0.092,0,0.178,0.023,0.256,0.068c0.32,0.185,0.52,0.735,0.52,1.435C326.941,66.215,326.224,67.763,325.377,68.252z"/>
				</g>
				<g>
					<path style="fill:#FAFAFA;" d="M94.973,193.109l-6.494,3.743c-0.983,0.57-1.785,1.958-1.785,3.098v7.502
						c0,1.14,0.801,1.603,1.785,1.033l6.494-3.751c0.983-0.57,1.784-1.958,1.784-3.098v-7.493
						C96.757,193.002,95.956,192.539,94.973,193.109z M91.726,205.196c-2.107,1.215-3.817,0.231-3.817-2.198
						c0-2.437,1.71-5.395,3.817-6.609c2.107-1.214,3.817-0.231,3.817,2.206C95.543,201.024,93.832,203.982,91.726,205.196z"/>
					<path style="fill:#FAFAFA;" d="M89.261,202.217c0,1.572,1.104,2.209,2.465,1.423c1.361-0.786,2.465-2.697,2.465-4.269
						c0-1.572-1.104-2.209-2.465-1.423C90.365,198.734,89.261,200.646,89.261,202.217z"/>
				</g>
				<path style="fill:#455A64;" d="M101.881,192.434v0.63c0,0.69,0.485,0.97,1.083,0.625l18.145-10.476
					c0.598-0.345,1.083-1.185,1.083-1.875l0-0.63c0-0.69-0.484-0.97-1.082-0.625l-18.145,10.476
					C102.366,190.904,101.881,191.743,101.881,192.434z"/>
				<g>
					<path style="fill:#455A64;" d="M183.122,147.933v0.63c0,0.69,0.485,0.97,1.082,0.625l14.083-8.123
						c0.598-0.345,1.083-1.185,1.083-1.875l0-0.63c0-0.69-0.484-0.97-1.082-0.625l-14.083,8.123
						C183.606,146.403,183.122,147.243,183.122,147.933z"/>
					<path style="fill:#455A64;" d="M207.494,133.862v0.63c0,0.69,0.485,0.97,1.083,0.625l14.083-8.123
						c0.598-0.345,1.083-1.185,1.083-1.875l0-0.63c0-0.69-0.484-0.97-1.082-0.625l-14.083,8.123
						C207.979,132.332,207.494,133.171,207.494,133.862z"/>
					<path style="fill:#FAFAFA;" d="M231.866,119.79v0.63c0,0.69,0.485,0.97,1.083,0.625l14.083-8.123
						c0.598-0.345,1.083-1.185,1.083-1.875l0-0.63c0-0.69-0.484-0.97-1.082-0.625l-14.083,8.123
						C232.351,118.26,231.866,119.1,231.866,119.79z"/>
					<path style="fill:#455A64;" d="M256.239,105.719v0.63c0,0.69,0.485,0.97,1.083,0.625l14.083-8.123
						c0.598-0.345,1.083-1.185,1.083-1.875l0-0.63c0-0.69-0.484-0.97-1.082-0.625l-14.083,8.123
						C256.723,104.189,256.239,105.028,256.239,105.719z"/>
				</g>
				<g>
					<path style="opacity:0.7;fill:#FFFFFF;" d="M101.881,198.529v0.42c0,0.46,0.323,0.646,0.721,0.416l12.089-6.98
						c0.398-0.23,0.721-0.789,0.721-1.249l0-0.42c0-0.46-0.323-0.646-0.721-0.416l-12.089,6.98
						C102.204,197.51,101.881,198.069,101.881,198.529z"/>
				</g>
				<path id="XMLID_318_" style="fill:#263238;" d="M329.19,31.058c-0.992-0.609-2.379-0.541-3.917,0.347L74.655,176.099
					c-3.019,1.743-5.467,5.983-5.467,9.469v11.453l5.126,2.982L335.866,48.996V37.543c0-1.732-0.605-2.95-1.584-3.524
					C333.362,33.48,330.078,31.603,329.19,31.058z"/>
				<path id="XMLID_317_" style="fill:#37474F;" d="M74.314,188.55c0-3.486,2.448-7.726,5.467-9.469L330.399,34.387
					c3.019-1.743,5.467-0.33,5.467,3.156v11.453L74.314,200.003V188.55z"/>
				<path id="XMLID_311_" style="fill:#455A64;" d="M334.336,34.051c-0.997-0.619-2.386-0.556-3.939,0.341L79.785,179.078
					c-1.515,0.871-2.879,2.374-3.864,4.078l-5.138-2.967c0.997-1.717,2.361-3.219,3.876-4.091L325.272,31.399
					c1.54-0.884,2.929-0.947,3.914-0.341c0.896,0.543,4.179,2.424,5.101,2.954C334.299,34.026,334.324,34.038,334.336,34.051z"/>
				<g id="XMLID_294_">
					<g id="XMLID_295_">
						<path id="XMLID_701_" style="fill:#27DEBF;" d="M305.096,54.902c-1.416,0.818-2.564,2.806-2.564,4.442
							c0,1.635,1.148,2.299,2.564,1.481c1.416-0.818,2.564-2.806,2.564-4.442C307.66,54.748,306.513,54.085,305.096,54.902z"/>
						<path style="fill:#27DEBF;" d="M314.07,49.734c-1.416,0.818-2.564,2.806-2.564,4.442c0,1.635,1.148,2.299,2.564,1.481
							c1.416-0.818,2.564-2.806,2.564-4.442C316.634,49.579,315.486,48.916,314.07,49.734z"/>
						<path id="XMLID_700_" style="fill:#27DEBF;" d="M323.044,44.566c-1.416,0.818-2.564,2.806-2.564,4.442
							c0,1.636,1.148,2.299,2.564,1.481c1.416-0.818,2.564-2.806,2.564-4.442C325.608,44.411,324.46,43.748,323.044,44.566z"/>
					</g>
				</g>
			</g>
		</g>
		<g>
			<polygon style="fill:#FAFAFA;" points="86.695,222.114 323.457,85.28 323.457,243.622 86.694,380.458 			"/>
			<g>
				<g>
					<g>
						<g>
							<path style="fill:#E0E0E0;" d="M240.176,152.612c-0.619,0-1.195-0.146-1.706-0.441c-1.218-0.703-1.889-2.147-1.889-4.064
								c-0.001-3.748,2.639-8.322,5.886-10.196c1.66-0.959,3.246-1.099,4.465-0.396c1.218,0.703,1.889,2.146,1.889,4.064
								c0,3.748-2.64,8.322-5.886,10.196C241.971,152.331,241.031,152.612,240.176,152.612z M245.223,138.008
								c-0.692,0-1.472,0.239-2.29,0.712l0,0c-2.989,1.725-5.42,5.936-5.419,9.388c0,1.57,0.505,2.726,1.422,3.255
								c0.917,0.53,2.173,0.389,3.532-0.396c2.988-1.726,5.419-5.937,5.419-9.388c0-1.57-0.505-2.726-1.422-3.256
								C246.1,138.112,245.681,138.008,245.223,138.008z"/>
						</g>
						<g>
							<path style="fill:#E0E0E0;" d="M252.206,139.039v0.588c0,0.644,0.452,0.905,1.01,0.583l13.139-7.608
								c0.558-0.322,1.01-1.105,1.01-1.749l0-0.588c0-0.644-0.452-0.905-1.01-0.583l-13.14,7.609
								C252.658,137.612,252.206,138.395,252.206,139.039z"/>
						</g>
					</g>
					<g>
						<path style="fill:#E0E0E0;" d="M242.998,148.031c-0.045,0.025-0.083,0.023-0.116-0.008c-0.032-0.031-0.047-0.081-0.047-0.149
							v-1.13l-1.879,1.085c-0.046,0.026-0.083,0.023-0.116-0.007c-0.032-0.032-0.049-0.081-0.049-0.15v-0.662
							c0-0.088,0.014-0.171,0.04-0.252c0.026-0.081,0.057-0.168,0.094-0.264l1.854-4.635c0.081-0.203,0.164-0.328,0.249-0.377
							l0.461-0.266c0.044-0.026,0.083-0.023,0.115,0.008c0.033,0.031,0.048,0.081,0.048,0.149v3.732l0.521-0.301
							c0.045-0.025,0.083-0.022,0.116,0.008c0.032,0.031,0.048,0.082,0.048,0.15v0.662c0,0.068-0.016,0.137-0.048,0.206
							c-0.033,0.068-0.071,0.115-0.116,0.14l-0.521,0.301v1.13c0,0.068-0.016,0.137-0.048,0.204
							c-0.032,0.069-0.071,0.116-0.115,0.141L242.998,148.031z M242.835,145.578v-1.996l-1.037,2.595L242.835,145.578z"/>
					</g>
				</g>
				<g>
					<g>
						<g>
							<path style="fill:#27DEBF;" d="M193.434,179.613c-0.619,0-1.195-0.146-1.705-0.441c-1.219-0.703-1.89-2.147-1.891-4.064
								c0-3.748,2.64-8.322,5.887-10.196c1.661-0.959,3.247-1.1,4.464-0.396c1.218,0.703,1.889,2.147,1.889,4.064
								c0,3.748-2.641,8.322-5.886,10.196C195.229,179.333,194.289,179.613,193.434,179.613z M198.482,165.008
								c-0.692,0-1.471,0.239-2.29,0.712c-2.988,1.725-5.42,5.937-5.42,9.388c0,1.57,0.506,2.727,1.423,3.256
								c0.918,0.529,2.172,0.389,3.532-0.396c2.988-1.726,5.419-5.937,5.419-9.388c0-1.57-0.506-2.727-1.422-3.256
								C199.358,165.113,198.939,165.008,198.482,165.008z"/>
						</g>
						<g>
							<path style="fill:#27DEBF;" d="M205.465,166.04v0.588c0,0.644,0.452,0.905,1.01,0.583l13.139-7.608
								c0.558-0.322,1.01-1.105,1.01-1.749l0-0.588c0-0.644-0.452-0.905-1.01-0.583l-13.14,7.609
								C205.917,164.613,205.465,165.396,205.465,166.04z"/>
						</g>
					</g>
					<g>
						<path style="fill:#27DEBF;" d="M197.285,167.951c0.045-0.026,0.083-0.023,0.115,0.008c0.033,0.032,0.049,0.08,0.049,0.148
							v0.663c0,0.068-0.015,0.141-0.046,0.217c-0.03,0.077-0.059,0.145-0.088,0.204l-0.885,1.948
							c0.181-0.068,0.345-0.093,0.493-0.079c0.148,0.014,0.274,0.071,0.379,0.169c0.106,0.097,0.186,0.239,0.243,0.424
							c0.056,0.185,0.084,0.411,0.084,0.679c0,0.324-0.041,0.635-0.124,0.934c-0.083,0.3-0.198,0.579-0.345,0.838
							c-0.148,0.26-0.321,0.493-0.521,0.703c-0.2,0.208-0.417,0.38-0.651,0.515c-0.283,0.164-0.528,0.254-0.736,0.271
							c-0.209,0.018-0.382-0.014-0.521-0.095c-0.139-0.081-0.246-0.204-0.318-0.367c-0.073-0.163-0.116-0.341-0.128-0.533
							c-0.004-0.072,0.011-0.141,0.046-0.207c0.035-0.066,0.074-0.113,0.117-0.139l0.479-0.276c0.04-0.023,0.074-0.022,0.1,0.003
							c0.026,0.025,0.053,0.067,0.081,0.125c0.025,0.061,0.057,0.112,0.097,0.154c0.04,0.042,0.094,0.071,0.161,0.085
							c0.066,0.015,0.149,0.008,0.251-0.019c0.101-0.027,0.225-0.083,0.37-0.167c0.246-0.142,0.446-0.333,0.597-0.572
							c0.151-0.241,0.227-0.5,0.227-0.78c0-0.28-0.076-0.437-0.227-0.471c-0.151-0.034-0.351,0.021-0.597,0.163l-0.503,0.291
							c-0.045,0.025-0.083,0.022-0.115-0.009c-0.033-0.031-0.049-0.081-0.049-0.149v-0.662c0-0.068,0.016-0.141,0.046-0.218
							c0.029-0.076,0.058-0.144,0.088-0.204l0.848-1.861l-1.672,0.965c-0.046,0.026-0.083,0.023-0.116-0.008
							c-0.032-0.031-0.049-0.08-0.049-0.148v-0.663c0-0.068,0.017-0.136,0.049-0.205c0.033-0.069,0.07-0.115,0.116-0.141
							L197.285,167.951z"/>
					</g>
				</g>
				<g>
					<g>
						<g>
							<path style="fill:#E0E0E0;" d="M286.88,125.583c-0.619,0-1.195-0.146-1.706-0.441c-1.218-0.703-1.889-2.147-1.889-4.064
								c-0.001-3.748,2.64-8.322,5.886-10.196c1.66-0.959,3.246-1.099,4.465-0.396c1.218,0.703,1.889,2.146,1.889,4.064
								c0,3.748-2.64,8.322-5.886,10.196C288.675,125.302,287.736,125.583,286.88,125.583z M291.928,110.979
								c-0.692,0-1.472,0.239-2.29,0.712l0,0c-2.989,1.725-5.42,5.937-5.419,9.388c0,1.57,0.505,2.726,1.422,3.255
								c0.917,0.53,2.173,0.389,3.531-0.396c2.988-1.726,5.419-5.937,5.419-9.388c0-1.57-0.505-2.726-1.422-3.256
								C292.804,111.083,292.385,110.979,291.928,110.979z"/>
						</g>
						<g>
							<path style="fill:#E0E0E0;" d="M288.095,115.594c0-0.068,0.016-0.136,0.049-0.205c0.033-0.069,0.071-0.115,0.115-0.141
								l2.278-1.315c0.046-0.026,0.084-0.023,0.117,0.008c0.031,0.031,0.049,0.08,0.049,0.148v0.663
								c0,0.068-0.018,0.137-0.049,0.205c-0.033,0.069-0.071,0.115-0.117,0.141l-1.702,0.983l-0.066,1.233
								c0.108-0.131,0.217-0.235,0.324-0.308c0.106-0.074,0.195-0.132,0.262-0.171c0.226-0.13,0.437-0.205,0.63-0.223
								c0.193-0.019,0.363,0.022,0.503,0.124c0.142,0.103,0.253,0.263,0.334,0.485c0.08,0.22,0.12,0.505,0.12,0.854
								c0,0.398-0.04,0.762-0.124,1.093c-0.082,0.331-0.195,0.63-0.339,0.896c-0.144,0.266-0.312,0.497-0.507,0.693
								c-0.193,0.196-0.399,0.357-0.618,0.482c-0.279,0.161-0.517,0.25-0.718,0.266c-0.2,0.016-0.366-0.024-0.497-0.119
								c-0.131-0.095-0.23-0.234-0.295-0.416c-0.068-0.182-0.106-0.393-0.113-0.631c-0.004-0.072,0.011-0.141,0.046-0.208
								c0.035-0.067,0.073-0.112,0.118-0.138l0.49-0.283c0.04-0.023,0.077-0.024,0.109-0.003c0.033,0.022,0.055,0.063,0.067,0.124
								c0.024,0.13,0.062,0.225,0.115,0.283c0.051,0.06,0.113,0.097,0.18,0.11c0.069,0.013,0.146,0.005,0.232-0.026
								c0.084-0.03,0.173-0.073,0.266-0.127c0.231-0.133,0.415-0.336,0.558-0.61c0.14-0.275,0.211-0.58,0.211-0.915
								c0-0.281-0.071-0.473-0.211-0.577c-0.142-0.105-0.326-0.095-0.558,0.032c-0.12,0.07-0.217,0.139-0.288,0.208
								c-0.071,0.069-0.128,0.135-0.173,0.198c-0.044,0.063-0.084,0.119-0.12,0.168c-0.036,0.049-0.084,0.09-0.14,0.122
								l-0.558,0.322c-0.044,0.025-0.082,0.023-0.115-0.008c-0.033-0.03-0.047-0.081-0.047-0.149L288.095,115.594z"/>
						</g>
						<g>
							<path style="fill:#E0E0E0;" d="M298.911,112.01v0.588c0,0.644,0.452,0.905,1.01,0.583l13.139-7.608
								c0.558-0.322,1.01-1.105,1.01-1.749v-0.588c0-0.644-0.452-0.905-1.01-0.583l-13.14,7.608
								C299.363,110.583,298.911,111.366,298.911,112.01z"/>
						</g>
					</g>
				</g>
				<g>
					<g>
						<g>
							<path style="fill:#27DEBF;" d="M146.691,206.614c-0.619,0-1.194-0.146-1.705-0.441c-1.218-0.703-1.889-2.147-1.89-4.064
								c0-3.748,2.641-8.322,5.887-10.196c1.661-0.959,3.246-1.099,4.464-0.396c1.218,0.703,1.889,2.147,1.889,4.064
								c0,3.748-2.64,8.322-5.886,10.196C148.487,206.333,147.548,206.614,146.691,206.614z"/>
						</g>
						<g>
							<path style="fill:#27DEBF;" d="M158.723,193.041v0.588c0,0.644,0.452,0.905,1.01,0.583l13.139-7.608
								c0.558-0.322,1.01-1.105,1.01-1.749l0-0.588c0-0.644-0.452-0.905-1.01-0.583l-13.14,7.609
								C159.175,191.614,158.723,192.397,158.723,193.041z"/>
						</g>
					</g>
					<path id="Check_1_" style="fill:#FAFAFA;" d="M151.87,194.273c-0.382-0.16-0.823,0.02-0.982,0.401l-2.836,6.747l-0.675-0.657
						c-0.295-0.288-0.771-0.281-1.061,0.016c-0.288,0.296-0.281,0.772,0.015,1.061l1.464,1.423c0.141,0.137,0.326,0.212,0.523,0.212
						c0.05,0,0.099-0.005,0.15-0.015c0.244-0.05,0.446-0.216,0.542-0.444l3.262-7.761
						C152.431,194.873,152.251,194.432,151.87,194.273z"/>
				</g>
				<g>
					<g>
						<g>
							<path style="fill:#27DEBF;" d="M99.951,233.615c-0.619,0-1.194-0.147-1.706-0.441c-1.218-0.703-1.889-2.147-1.89-4.065
								c0-3.747,2.64-8.321,5.887-10.196l0,0c1.661-0.959,3.246-1.1,4.464-0.396c1.218,0.704,1.889,2.147,1.889,4.064
								c0,3.747-2.64,8.321-5.886,10.195C101.745,233.335,100.807,233.615,99.951,233.615z"/>
						</g>
						<g>
							<path style="fill:#27DEBF;" d="M111.981,220.042v0.588c0,0.644,0.452,0.905,1.01,0.583l13.139-7.608
								c0.558-0.322,1.01-1.105,1.01-1.749l0-0.588c0-0.644-0.452-0.905-1.01-0.583l-13.14,7.609
								C112.434,218.615,111.981,219.398,111.981,220.042z"/>
						</g>
					</g>
					<path id="Check_2_" style="fill:#FAFAFA;" d="M105.122,221.262c-0.382-0.16-0.823,0.02-0.982,0.401l-2.836,6.748l-0.675-0.657
						c-0.295-0.288-0.771-0.281-1.061,0.016c-0.288,0.296-0.281,0.772,0.015,1.061l1.464,1.423c0.141,0.137,0.326,0.212,0.523,0.212
						c0.049,0,0.099-0.005,0.15-0.015c0.244-0.05,0.446-0.216,0.542-0.444l3.262-7.761
						C105.683,221.863,105.503,221.423,105.122,221.262z"/>
				</g>
			</g>
			<g>
				<polygon style="fill:#E0E0E0;" points="86.694,247.359 323.455,110.524 323.455,111.85 86.694,248.684 				"/>
				<polygon style="fill:#27DEBF;" points="86.694,248.13 86.694,248.684 227.771,167.26 227.771,165.934 86.694,247.359 				"/>
			</g>
		</g>
	</g>
</g>
<g id="Tabs_1_">
	<g>
		<path id="XMLID_4_" style="fill:#27DEBF;" d="M285.109,148.042c-0.356-0.236-0.865-0.219-1.429,0.107L123.95,240.344
			c-1.078,0.622-1.952,2.136-1.952,3.381l0.002,103.835c0,0.613,0.212,1.046,0.555,1.254c0.354,0.214,3.322,1.911,3.67,2.117
			c0.354,0.209,0.845,0.182,1.388-0.132l159.728-92.197c1.078-0.622,1.952-2.136,1.952-3.38V151.388c0-0.62-0.217-1.056-0.567-1.261
			C288.372,149.92,285.433,148.257,285.109,148.042z"/>
		<g style="opacity:0.9;">
			<path style="fill:#FFFFFF;" d="M288.726,150.127c-0.354-0.207-0.716-0.406-0.103-0.055c-0.343-0.144-0.793-0.09-1.28,0.189
				L127.614,242.46c-0.541,0.307-1.028,0.847-1.379,1.46c-0.361,0.613-0.577,1.298-0.577,1.92v103.832
				c0,0.555,0.179,0.967,0.473,1.203c0.041,0.024,0.074,0.043,0.095,0.056c0.354,0.209,0.845,0.182,1.389-0.132l159.727-92.197
				c1.078-0.622,1.952-2.136,1.952-3.38V151.388C289.293,150.768,289.077,150.332,288.726,150.127z"/>
		</g>
		<g style="opacity:0.8;">
			<path style="fill:#FFFFFF;" d="M125.658,245.841c0-0.622,0.216-1.307,0.577-1.92l-3.666-2.117
				c-0.352,0.611-0.57,1.299-0.57,1.921l0.002,103.835c0,0.613,0.212,1.046,0.555,1.254c0.332,0.201,2.959,1.704,3.575,2.062
				c-0.294-0.235-0.473-0.647-0.473-1.203V245.841z"/>
		</g>
		<g id="XMLID_1_" style="opacity:0.95;">
			<path style="fill:#FFFFFF;" d="M285.107,148.044c0.307,0.207,2.903,1.677,3.516,2.028c-0.343-0.144-0.793-0.09-1.28,0.189
				L127.614,242.46c-0.541,0.307-1.028,0.847-1.379,1.46l-3.669-2.118c0.351-0.613,0.847-1.145,1.388-1.46l159.729-92.19
				C284.242,147.827,284.756,147.809,285.107,148.044z"/>
		</g>
	</g>
	<g>
		<path id="XMLID_8_" style="fill:#27DEBF;" d="M312.109,165.042c-0.356-0.236-0.865-0.219-1.429,0.107L150.95,257.344
			c-1.078,0.622-1.952,2.136-1.952,3.381l0.002,103.835c0,0.613,0.212,1.046,0.555,1.254c0.354,0.214,3.322,1.911,3.67,2.117
			c0.354,0.209,0.845,0.182,1.388-0.132l159.728-92.197c1.078-0.622,1.952-2.136,1.952-3.38V168.388c0-0.62-0.217-1.056-0.567-1.261
			C315.372,166.92,312.433,165.257,312.109,165.042z"/>
		<g style="opacity:0.7;">
			<path style="fill:#FFFFFF;" d="M315.726,167.127c-0.354-0.207-0.716-0.406-0.103-0.055c-0.343-0.144-0.793-0.09-1.28,0.189
				L154.614,259.46c-0.541,0.307-1.028,0.847-1.379,1.46c-0.361,0.613-0.577,1.298-0.577,1.92v103.832
				c0,0.555,0.178,0.967,0.472,1.203c0.041,0.024,0.074,0.043,0.095,0.056c0.354,0.209,0.845,0.182,1.389-0.132l159.727-92.197
				c1.078-0.622,1.952-2.136,1.952-3.38V168.388C316.293,167.768,316.077,167.332,315.726,167.127z"/>
		</g>
		<g style="opacity:0.6;">
			<path style="fill:#FFFFFF;" d="M152.658,262.841c0-0.622,0.216-1.307,0.577-1.92l-3.666-2.117
				c-0.352,0.611-0.57,1.299-0.57,1.921l0.002,103.835c0,0.613,0.212,1.046,0.555,1.254c0.332,0.201,2.959,1.704,3.575,2.062
				c-0.294-0.235-0.472-0.647-0.472-1.203V262.841z"/>
		</g>
		<g id="XMLID_6_" style="opacity:0.8;">
			<path style="fill:#FFFFFF;" d="M312.107,165.044c0.307,0.207,2.903,1.677,3.516,2.028c-0.343-0.144-0.793-0.09-1.28,0.189
				L154.614,259.46c-0.541,0.307-1.028,0.847-1.379,1.46l-3.669-2.118c0.351-0.613,0.847-1.145,1.388-1.46l159.729-92.19
				C311.242,164.827,311.756,164.809,312.107,165.044z"/>
		</g>
	</g>
	<g>
		<g>
			<g id="XMLID_702_">
				<g id="XMLID_716_">
					<path id="XMLID_893_" style="fill:#27DEBF;" d="M341.109,181.042c-0.356-0.236-0.865-0.219-1.429,0.107L179.95,273.344
						c-1.078,0.622-1.952,2.136-1.952,3.381l0.002,103.835c0,0.613,0.212,1.046,0.555,1.254c0.354,0.214,3.322,1.911,3.67,2.117
						c0.354,0.209,0.845,0.182,1.388-0.132l159.728-92.197c1.078-0.622,1.952-2.136,1.952-3.38V184.388
						c0-0.62-0.217-1.056-0.567-1.261C344.372,182.92,341.433,181.257,341.109,181.042z"/>
					<path id="XMLID_725_" style="fill:#27DEBF;" d="M341.107,181.044c0.307,0.207,2.903,1.677,3.516,2.028
						c-0.343-0.144-0.793-0.09-1.28,0.189L183.614,275.46c-0.541,0.307-1.028,0.847-1.379,1.46l-3.669-2.118
						c0.351-0.613,0.847-1.145,1.388-1.46l159.729-92.19C340.242,180.827,340.756,180.809,341.107,181.044z"/>
					<path id="XMLID_894_" style="opacity:0.2;" d="M341.107,181.044c0.307,0.207,2.903,1.677,3.516,2.028
						c-0.343-0.144-0.793-0.09-1.28,0.189L183.614,275.46c-0.541,0.307-1.028,0.847-1.379,1.46l-3.669-2.118
						c0.351-0.613,0.847-1.145,1.388-1.46l159.729-92.19C340.242,180.827,340.756,180.809,341.107,181.044z"/>
					<path id="XMLID_721_" style="opacity:0.35;" d="M181.658,382.673c0,0.559,0.18,0.974,0.478,1.208
						c-0.622-0.361-3.245-1.866-3.579-2.064c-0.342-0.207-0.559-0.64-0.559-1.253V276.722c0-0.622,0.216-1.307,0.568-1.92
						l3.669,2.118c-0.361,0.613-0.577,1.298-0.577,1.92V382.673z"/>
				</g>
			</g>
		</g>
		<g>
			<path style="fill:#FAFAFA;" d="M203.393,272.401c1.321-0.763,2.392-0.142,2.392,1.386c0,1.528-1.071,3.383-2.392,4.143
				c-1.321,0.76-2.392,0.139-2.392-1.386C201.001,275.018,202.072,273.164,203.393,272.401z"/>
			<path style="fill:#455A64;" d="M203.393,273.911c0.599-0.346,1.085-0.065,1.085,0.629s-0.486,1.535-1.085,1.879
				c-0.599,0.345-1.085,0.063-1.085-0.629C202.308,275.098,202.794,274.257,203.393,273.911z"/>
		</g>
		<path style="fill:#FAFAFA;" d="M208.136,272.176v0.535c0,0.587,0.412,0.825,0.92,0.531l11.97-6.904
			c0.508-0.293,0.92-1.007,0.92-1.594l0-0.536c0-0.587-0.412-0.825-0.92-0.531l-11.971,6.905
			C208.548,270.876,208.136,271.59,208.136,272.176z"/>
		<g>
			<g>
				<path style="fill:#FAFAFA;" d="M300.837,216.084c1.321-0.763,2.392-0.142,2.392,1.386c0,1.528-1.071,3.383-2.392,4.143
					c-1.321,0.76-2.392,0.139-2.392-1.386C298.445,218.702,299.516,216.846,300.837,216.084z"/>
			</g>
			<path style="opacity:0.7;fill:#FFFFFF;" d="M305.58,215.859v0.535c0,0.587,0.412,0.825,0.92,0.531l11.97-6.904
				c0.508-0.293,0.92-1.007,0.92-1.594l0-0.536c0-0.587-0.412-0.825-0.92-0.531l-11.971,6.905
				C305.992,214.559,305.58,215.273,305.58,215.859z"/>
		</g>
		<polygon style="opacity:0.3;" points="181.658,295.713 262.898,248.809 262.898,250.366 181.658,297.27 		"/>
		<polygon style="opacity:0.7;fill:#FFFFFF;" points="262.898,248.809 345.294,201.238 345.293,202.794 262.898,250.365 		"/>
		<g style="opacity:0.3;">
			<path d="M197.906,296.829v0.535c0,0.587,0.412,0.825,0.92,0.531l11.97-6.904c0.508-0.293,0.92-1.007,0.92-1.594l0-0.536
				c0-0.587-0.412-0.825-0.92-0.531l-11.971,6.905C198.318,295.529,197.906,296.242,197.906,296.829z"/>
			<path d="M246.651,268.686v0.535c0,0.587,0.412,0.825,0.92,0.531l11.97-6.904c0.508-0.293,0.92-1.007,0.92-1.594l0-0.536
				c0-0.587-0.412-0.825-0.92-0.531l-11.971,6.905C247.063,267.386,246.651,268.1,246.651,268.686z"/>
			<path d="M295.396,240.544v0.535c0,0.587,0.412,0.825,0.92,0.531l11.97-6.904c0.508-0.293,0.92-1.007,0.92-1.594l0-0.536
				c0-0.587-0.412-0.825-0.92-0.531l-11.971,6.905C295.807,239.244,295.396,239.957,295.396,240.544z"/>
			<path d="M197.906,315.619v0.535c0,0.587,0.412,0.825,0.92,0.531l11.97-6.904c0.508-0.293,0.92-1.007,0.92-1.594l0-0.536
				c0-0.587-0.412-0.825-0.92-0.531l-11.971,6.905C198.318,314.319,197.906,315.032,197.906,315.619z"/>
			<path d="M197.906,334.366v0.535c0,0.587,0.412,0.825,0.92,0.531l11.97-6.904c0.508-0.293,0.92-1.007,0.92-1.594l0-0.536
				c0-0.587-0.412-0.825-0.92-0.531l-11.971,6.905C198.318,333.066,197.906,333.78,197.906,334.366z"/>
			<path d="M246.651,287.477v0.535c0,0.587,0.412,0.825,0.92,0.531l11.97-6.904c0.508-0.293,0.92-1.007,0.92-1.594l0-0.536
				c0-0.587-0.412-0.825-0.92-0.531l-11.971,6.905C247.063,286.176,246.651,286.89,246.651,287.477z"/>
			<path d="M295.396,259.334v0.535c0,0.587,0.412,0.825,0.92,0.531l11.97-6.904c0.508-0.293,0.92-1.007,0.92-1.594l0-0.536
				c0-0.587-0.412-0.825-0.92-0.531l-11.971,6.905C295.807,258.034,295.396,258.748,295.396,259.334z"/>
		</g>
		<path style="opacity:0.7;fill:#FFFFFF;" d="M198.809,300.714l32.687-18.872c0.508-0.293,0.92-0.056,0.92,0.531v3.855
			c0,0.587-0.412,1.3-0.92,1.594l-32.687,18.872c-0.508,0.293-0.92,0.056-0.92-0.531v-3.855
			C197.889,301.721,198.301,301.007,198.809,300.714z"/>
		<path style="opacity:0.7;fill:#FFFFFF;" d="M247.554,272.572l32.687-18.872c0.508-0.293,0.92-0.056,0.92,0.531v3.855
			c0,0.587-0.412,1.3-0.92,1.594l-32.687,18.872c-0.508,0.293-0.92,0.056-0.92-0.531v-3.855
			C246.634,273.578,247.046,272.865,247.554,272.572z"/>
		<path style="opacity:0.7;fill:#FFFFFF;" d="M296.299,244.429l32.687-18.872c0.508-0.293,0.92-0.055,0.92,0.531v3.855
			c0,0.587-0.412,1.3-0.92,1.594l-32.687,18.872c-0.508,0.293-0.92,0.056-0.92-0.531v-3.855
			C295.379,245.436,295.79,244.723,296.299,244.429z"/>
		<path style="opacity:0.7;fill:#FFFFFF;" d="M198.809,319.504l32.687-18.872c0.508-0.293,0.92-0.055,0.92,0.531v3.855
			c0,0.587-0.412,1.3-0.92,1.594l-32.687,18.872c-0.508,0.293-0.92,0.056-0.92-0.531v-3.855
			C197.889,320.511,198.301,319.798,198.809,319.504z"/>
		<path style="opacity:0.7;fill:#FFFFFF;" d="M198.809,338.75l130.176-75.178c0.508-0.293,0.92-0.055,0.92,0.531v24.762
			c0,0.587-0.412,1.3-0.92,1.594l-130.176,75.178c-0.508,0.293-0.92,0.055-0.92-0.531v-24.762
			C197.889,339.756,198.301,339.043,198.809,338.75z"/>
		<path style="opacity:0.7;fill:#FFFFFF;" d="M247.554,291.362l32.687-18.872c0.508-0.293,0.92-0.055,0.92,0.531v3.855
			c0,0.587-0.412,1.3-0.92,1.594l-32.687,18.872c-0.508,0.293-0.92,0.056-0.92-0.531v-3.855
			C246.634,292.369,247.046,291.655,247.554,291.362z"/>
		<path style="opacity:0.7;fill:#FFFFFF;" d="M296.299,263.219l32.687-18.872c0.508-0.293,0.92-0.055,0.92,0.531v3.855
			c0,0.587-0.412,1.3-0.92,1.594l-32.687,18.872c-0.508,0.293-0.92,0.056-0.92-0.531v-3.855
			C295.379,264.226,295.79,263.513,296.299,263.219z"/>
	</g>
	<g>
		<g id="Speach_Bubble_1_">
			<g id="XMLID_944_">
				<path id="XMLID_953_" style="fill:#263238;" d="M340.1,302.722l-30.311,17.532c-0.457,0.264-0.828,0.906-0.828,1.435v14.568
					c0,0.528,0.373,1.167,0.833,1.427l1.947,1.109c0.46,0.26,1.204,0.256,1.661-0.008l30.311-17.532
					c0.458-0.264,0.828-0.906,0.828-1.435v-14.568c0-0.528-0.373-1.167-0.833-1.427l-1.947-1.109
					C341.301,302.454,340.557,302.458,340.1,302.722z"/>
				<path id="XMLID_952_" style="fill:#455A64;" d="M312.573,338.306v-14.568c0-0.528,0.371-1.171,0.828-1.435l30.311-17.532
					c0.458-0.264,0.828-0.05,0.828,0.478v14.568c0,0.528-0.371,1.171-0.828,1.435l-30.311,17.532
					C312.944,339.048,312.573,338.834,312.573,338.306z"/>
				<path id="XMLID_946_" style="opacity:0.2;" d="M313.403,338.788c-0.441,0.256-1.247,0.265-1.663,0.01l-1.945-1.112
					c-0.459-0.256-0.834-0.895-0.834-1.423v-14.57c0-0.276,0.103-0.578,0.264-0.846l3.594,2.08
					c-0.153,0.256-0.245,0.551-0.245,0.815v14.566C312.574,338.792,312.915,339.071,313.403,338.788z"/>
				<path id="XMLID_945_" style="fill:#37474F;" d="M344.531,305.099c-0.065-0.417-0.406-0.566-0.819-0.329l-30.308,17.533
					c-0.23,0.134-0.436,0.36-0.585,0.62l-3.598-2.08c0.149-0.249,0.348-0.463,0.57-0.589l30.312-17.533
					c0.455-0.264,1.198-0.268,1.661-0.008l1.945,1.108C344.125,304.058,344.473,304.605,344.531,305.099z"/>
			</g>
		</g>
		<g>
			<path style="fill:#27DEBF;" d="M322.528,329.802c-0.105,0.06-0.186,0.064-0.24,0.012c-0.057-0.053-0.096-0.097-0.12-0.131
				l-2.586-4.421v5.857c0,0.105-0.024,0.208-0.074,0.314c-0.049,0.104-0.107,0.176-0.175,0.215l-0.749,0.432
				c-0.067,0.039-0.126,0.035-0.175-0.012c-0.049-0.049-0.073-0.124-0.073-0.229v-9.185c0-0.103,0.024-0.208,0.073-0.311
				c0.049-0.105,0.107-0.177,0.175-0.216l0.647-0.374c0.104-0.06,0.185-0.063,0.24-0.01c0.055,0.054,0.095,0.098,0.12,0.129
				l2.585,4.422v-5.857c0-0.104,0.024-0.209,0.073-0.313c0.05-0.104,0.108-0.176,0.177-0.215l0.747-0.432
				c0.067-0.039,0.126-0.035,0.175,0.013c0.051,0.046,0.075,0.123,0.075,0.226v9.185c0,0.105-0.024,0.209-0.075,0.314
				c-0.049,0.104-0.107,0.175-0.175,0.214L322.528,329.802z"/>
			<path style="fill:#27DEBF;" d="M324.54,324.945c0-0.531,0.051-1.062,0.156-1.591c0.105-0.529,0.255-1.025,0.452-1.483
				c0.197-0.46,0.436-0.87,0.716-1.23c0.28-0.361,0.593-0.642,0.938-0.841c0.345-0.198,0.657-0.282,0.938-0.249
				c0.279,0.033,0.519,0.154,0.715,0.368c0.197,0.214,0.35,0.509,0.457,0.888c0.108,0.379,0.162,0.81,0.162,1.293v0.64
				c0,0.104-0.025,0.209-0.074,0.314c-0.049,0.103-0.107,0.176-0.175,0.215l-3.084,1.78c0,0.218,0.028,0.394,0.088,0.525
				c0.058,0.132,0.137,0.227,0.234,0.283c0.099,0.058,0.213,0.077,0.342,0.059c0.13-0.019,0.262-0.065,0.397-0.144
				c0.196-0.113,0.357-0.237,0.48-0.369c0.124-0.133,0.226-0.27,0.306-0.411c0.067-0.115,0.123-0.198,0.166-0.252
				c0.043-0.054,0.102-0.102,0.176-0.145l0.738-0.427c0.067-0.039,0.128-0.035,0.18,0.01c0.053,0.046,0.075,0.123,0.069,0.23
				c-0.006,0.137-0.054,0.335-0.143,0.594c-0.09,0.262-0.224,0.541-0.401,0.844c-0.179,0.303-0.399,0.6-0.661,0.892
				c-0.261,0.294-0.564,0.541-0.909,0.739c-0.345,0.199-0.657,0.287-0.938,0.265c-0.28-0.024-0.519-0.149-0.716-0.377
				c-0.197-0.228-0.348-0.546-0.452-0.954C324.591,326.003,324.54,325.513,324.54,324.945z M326.802,321.505
				c-0.179,0.103-0.331,0.232-0.457,0.385c-0.126,0.153-0.232,0.319-0.319,0.497c-0.086,0.178-0.152,0.358-0.197,0.541
				c-0.047,0.183-0.076,0.35-0.088,0.498l2.087-1.205c-0.013-0.134-0.035-0.27-0.069-0.407c-0.034-0.137-0.09-0.247-0.167-0.33
				c-0.077-0.084-0.178-0.13-0.304-0.137C327.161,321.338,326.999,321.392,326.802,321.505z"/>
			<path style="fill:#27DEBF;" d="M331.992,321.993l-1.089,2.704c-0.062,0.15-0.125,0.26-0.19,0.33
				c-0.064,0.07-0.138,0.129-0.217,0.175l-0.711,0.411c-0.068,0.039-0.125,0.033-0.171-0.016c-0.047-0.049-0.069-0.131-0.069-0.244
				c0-0.076,0.012-0.148,0.037-0.221l1.662-4.13l-1.589-2.111c-0.024-0.042-0.037-0.102-0.037-0.178
				c0-0.113,0.023-0.222,0.069-0.324c0.047-0.102,0.104-0.173,0.171-0.212l0.711-0.41c0.08-0.047,0.152-0.072,0.217-0.076
				c0.065-0.004,0.128,0.033,0.189,0.111l1.044,1.387l1.034-2.587c0.062-0.149,0.124-0.259,0.189-0.329
				c0.064-0.07,0.137-0.129,0.217-0.175l0.711-0.411c0.067-0.039,0.125-0.033,0.171,0.016c0.047,0.049,0.069,0.131,0.069,0.244
				c0,0.076-0.013,0.149-0.037,0.221l-1.607,4.012l1.645,2.166c0.024,0.042,0.037,0.102,0.037,0.176
				c0,0.115-0.023,0.223-0.069,0.326c-0.047,0.102-0.104,0.172-0.171,0.211l-0.711,0.411c-0.081,0.046-0.152,0.071-0.218,0.075
				c-0.064,0.004-0.128-0.032-0.189-0.111L331.992,321.993z"/>
			<path style="fill:#27DEBF;" d="M336.959,318.797c0,0.294,0.051,0.499,0.152,0.616c0.102,0.116,0.291,0.095,0.568-0.065
				l0.563-0.325c0.067-0.039,0.126-0.035,0.175,0.012c0.049,0.049,0.074,0.123,0.074,0.229v0.938c0,0.105-0.025,0.209-0.074,0.314
				c-0.049,0.104-0.107,0.175-0.175,0.214l-0.684,0.395c-0.578,0.334-1.023,0.375-1.334,0.124c-0.312-0.252-0.467-0.824-0.467-1.715
				v-3.057l-0.609,0.353c-0.067,0.039-0.126,0.034-0.175-0.013c-0.05-0.047-0.075-0.123-0.075-0.227v-0.939
				c0-0.104,0.025-0.208,0.075-0.313c0.049-0.104,0.107-0.176,0.175-0.215l0.609-0.352v-2.318c0-0.103,0.024-0.208,0.074-0.313
				c0.049-0.104,0.107-0.176,0.176-0.215l0.701-0.404c0.067-0.039,0.126-0.036,0.176,0.012c0.049,0.047,0.073,0.123,0.073,0.228
				v2.317l1.191-0.688c0.068-0.039,0.127-0.035,0.176,0.012c0.049,0.048,0.073,0.123,0.073,0.229v0.938
				c0,0.105-0.024,0.209-0.073,0.313c-0.049,0.104-0.107,0.176-0.176,0.215l-1.191,0.688V318.797z"/>
		</g>
	</g>
</g>
<g id="Magic_Wand_1_">
	<g id="Magic_Wand">
		
			<ellipse transform="matrix(0.5023 -0.8647 0.8647 0.5023 114.0081 391.2145)" style="fill:#27DEBF;" cx="396.835" cy="96.573" rx="16.154" ry="9.326"/>
		
			<ellipse transform="matrix(0.5023 -0.8647 0.8647 0.5023 114.0081 391.2145)" style="opacity:0.8;fill:#FFFFFF;" cx="396.835" cy="96.573" rx="16.154" ry="9.326"/>
		<g>
			<path id="XMLID_329_" style="fill:#27DEBF;" d="M420.126,86.922c0.11-0.99,0.75-2.34,1.49-3.02l3.21-3.42
				c0.73-0.67,1.19-2.02,1.03-3.01l-1.15-6.67c-0.17-0.99-0.99-1.33-1.82-0.8l-3.21,1.82c-0.83,0.55-1.88,0.26-2.45-0.55
				c-0.37-0.54-0.76-1.03-1.19-1.46c-0.69-0.73-1.07-1.97-0.71-2.91l1.44-4.65c0.34-0.94-0.17-1.88-1.14-2.1l-4.61-1.03
				c-0.97-0.22-2.14,0.32-2.61,1.21l-2.65,4.47c-0.47,0.89-1.65,1.73-2.62,1.97c-0.93,0.24-1.87,0.54-2.84,0.94
				c-0.92,0.37-1.88-0.05-2.18-1l-1-2.08c-0.29-0.95-1.16-1.22-1.95-0.61l-6.9,5.43c-0.78,0.62-1.38,1.93-1.31,2.93l-0.14,3.47
				c0.06,1-0.43,2.41-1.08,3.17c-1.12,1.36-2.2,2.77-3.2,4.25c-0.56,0.83-1.81,1.48-2.81,1.42l-1.97-0.23
				c-1-0.06-2.14,0.64-2.55,1.56l-4.52,10.1c-0.4,0.92,0.01,1.97,0.93,2.37l1.47,0.79c0.91,0.4,1.45,1.5,1.23,2.48
				c-0.35,1.51-0.6,2.99-0.77,4.47c-0.12,0.98-0.76,2.34-1.5,3.02l-3.19,3.46c-0.75,0.68-1.2,2.03-1.03,3.02l1.15,6.67
				c0.17,0.98,0.98,1.33,1.82,0.79l3.2-1.87c0.83-0.55,1.87-0.26,2.45,0.55c0.37,0.53,0.76,1.01,1.18,1.46
				c0.69,0.74,1.07,1.98,0.72,2.91l-1.52,4.77c-0.35,0.94,0.16,1.88,1.14,2.1l4.6,1.03c0.98,0.21,2.15-0.33,2.61-1.21l2.74-4.59
				c0.47-0.89,1.65-1.73,2.62-1.97c0.92-0.24,1.88-0.54,2.84-0.94c0.93-0.37,1.89,0.04,2.17,1l0.94,2.67
				c0.29,0.95,1.16,1.22,1.95,0.6l7.32-5.73c0.78-0.61,1.75-1.84,1.31-2.92l-0.64-0.72l-5.16-6.19c-1.42,1.22-2.9,2.3-4.43,3.18
				c-9.96,5.75-18.03,1.12-18.03-10.34s8.07-25.41,18.03-31.16c9.95-5.75,18.03-1.12,18.03,10.34c0,4.76-1.4,9.96-3.74,14.81
				l4.89,5.87l0.87,0.04c0.99,0.06,2.13-0.65,2.54-1.56l3.69-8.2c0.41-0.92-0.01-1.98-0.93-2.37l-1.6-0.9
				c-0.92-0.39-1.45-1.49-1.23-2.47C419.696,89.882,419.956,88.392,420.126,86.922z"/>
			<path style="fill:#FAFAFA;" d="M402.418,109.952l-7.258-8.78c-0.441-0.531-0.518-1.446-0.173-2.043l4.228-5.27
				c0.346-0.597,0.985-0.652,1.426-0.121l7.264,8.777L402.418,109.952z"/>
			<path style="fill:#455A64;" d="M437.574,139.998l-4.228,5.27c-0.346,0.597-0.984,0.651-1.425,0.12l-28.16-33.832l5.481-7.433
				l28.161,33.832C437.843,138.486,437.92,139.401,437.574,139.998z"/>
		</g>
		<g id="Shine_7_">
			<g>
				<path style="fill:#27DEBF;" d="M426.18,53.364c-0.272-0.171-0.366-0.522-0.216-0.806l0.278-0.528
					c0.726-1.375,0.346-3.045-0.903-3.972l-0.479-0.354c-0.259-0.19-0.326-0.549-0.155-0.82c0.171-0.272,0.523-0.367,0.807-0.217
					l0.528,0.278l0,0c1.375,0.726,3.045,0.346,3.972-0.904l0.355-0.478c0.191-0.258,0.548-0.325,0.82-0.154c0,0,0,0,0.001,0.001
					c0.271,0.171,0.365,0.523,0.215,0.807l-0.278,0.527c-0.725,1.376-0.345,3.046,0.904,3.972l0.479,0.356
					c0.258,0.191,0.325,0.549,0.154,0.821c-0.171,0.271-0.523,0.365-0.807,0.215l-0.527-0.279c-1.375-0.725-3.045-0.345-3.972,0.904
					l-0.354,0.479C426.81,53.468,426.452,53.535,426.18,53.364C426.18,53.364,426.18,53.364,426.18,53.364z M427.336,48.539
					c0.358,0.675,0.53,1.432,0.499,2.195c0.675-0.358,1.432-0.53,2.195-0.499c-0.357-0.675-0.53-1.432-0.499-2.195
					C428.856,48.397,428.099,48.569,427.336,48.539z"/>
			</g>
		</g>
		<g id="Shine_6_">
			<g>
				<path style="fill:#27DEBF;" d="M361.181,133.234c0.315-0.061,0.624,0.131,0.709,0.441l0.158,0.575
					c0.41,1.5,1.828,2.46,3.373,2.283l0.591-0.068c0.319-0.038,0.613,0.178,0.674,0.493c0.061,0.316-0.131,0.625-0.441,0.71
					l-0.575,0.158l0,0c-1.5,0.41-2.46,1.828-2.282,3.374l0.067,0.592c0.037,0.319-0.178,0.612-0.494,0.673c0,0,0,0-0.001,0
					c-0.314,0.061-0.624-0.132-0.708-0.442l-0.156-0.575c-0.411-1.5-1.829-2.46-3.374-2.282l-0.593,0.068
					c-0.319,0.037-0.612-0.179-0.673-0.495c-0.061-0.314,0.132-0.624,0.442-0.708l0.576-0.157c1.499-0.41,2.459-1.829,2.283-3.374
					l-0.068-0.592C360.65,133.589,360.866,133.295,361.181,133.234C361.181,133.234,361.181,133.234,361.181,133.234z
					 M363.634,137.548c-0.722-0.249-1.365-0.684-1.864-1.262c-0.249,0.722-0.684,1.365-1.262,1.864
					c0.722,0.249,1.365,0.684,1.864,1.262C362.621,138.69,363.056,138.048,363.634,137.548z"/>
			</g>
		</g>
		<g id="Shine_5_">
			<g>
				<path style="fill:#27DEBF;" d="M436.244,112.389c-0.313,0.072-0.629-0.108-0.724-0.416l-0.177-0.569
					c-0.464-1.483-1.917-2.391-3.455-2.158l-0.589,0.09c-0.317,0.049-0.619-0.156-0.691-0.468c-0.072-0.313,0.108-0.629,0.415-0.725
					l0.569-0.178l0,0c1.485-0.464,2.392-1.916,2.16-3.455l-0.09-0.588c-0.049-0.318,0.156-0.619,0.469-0.692
					c0.313-0.072,0.629,0.108,0.724,0.416l0.177,0.568c0.465,1.484,1.917,2.392,3.454,2.159l0.59-0.089
					c0.318-0.048,0.618,0.157,0.691,0.47c0.072,0.312-0.109,0.629-0.416,0.723l-0.569,0.178c-1.483,0.465-2.391,1.917-2.159,3.454
					l0.09,0.589C436.762,112.016,436.557,112.317,436.244,112.389z M433.636,108.167c0.731,0.222,1.389,0.634,1.909,1.193
					c0.222-0.731,0.634-1.389,1.193-1.909c-0.731-0.222-1.389-0.634-1.909-1.193C434.607,106.989,434.196,107.647,433.636,108.167z"
					/>
			</g>
		</g>
		<g id="Shine_4_">
			<g>
				<path style="fill:#27DEBF;" d="M369.493,75.89c-0.006,0.006-0.011,0.011-0.017,0.016c-0.241,0.213-0.605,0.203-0.835-0.02
					l-0.428-0.416c-0.001-0.001-0.001-0.001-0.001-0.001c-1.113-1.085-2.823-1.193-4.064-0.256l-0.475,0.359
					c-0.257,0.193-0.618,0.157-0.831-0.083c-0.213-0.241-0.203-0.605,0.02-0.835l0.415-0.427c1.087-1.115,1.193-2.824,0.257-4.065
					l-0.359-0.475c-0.194-0.257-0.145-0.622,0.083-0.831c0.241-0.213,0.605-0.203,0.835,0.02l0.427,0.415
					c1.114,1.086,2.824,1.193,4.065,0.257l0.477-0.359c0.257-0.194,0.619-0.156,0.831,0.085c0.212,0.242,0.203,0.606-0.021,0.835
					l-0.416,0.427c-1.084,1.114-1.192,2.824-0.256,4.064l0.359,0.476C369.749,75.326,369.718,75.676,369.493,75.89z M365.173,73.433
					c0.749-0.153,1.523-0.104,2.246,0.141c-0.152-0.748-0.104-1.523,0.142-2.246c-0.748,0.152-1.523,0.104-2.247-0.142
					C365.468,71.935,365.418,72.709,365.173,73.433z"/>
			</g>
		</g>
		<circle style="fill:#27DEBF;" cx="368.304" cy="141.345" r="0.957"/>
		<path style="fill:#27DEBF;" d="M430.988,58.309c0,0.529-0.429,0.957-0.958,0.957s-0.957-0.429-0.957-0.957
			s0.429-0.958,0.957-0.958S430.988,57.78,430.988,58.309z"/>
		<path style="fill:#27DEBF;" d="M429.677,102.586c0,0.529-0.429,0.957-0.958,0.957c-0.529,0-0.957-0.429-0.957-0.957
			s0.429-0.957,0.957-0.957C429.249,101.629,429.677,102.057,429.677,102.586z"/>
		<path style="fill:#27DEBF;" d="M366.131,82.003c0,0.529-0.429,0.958-0.958,0.958s-0.957-0.429-0.957-0.958
			c0-0.529,0.429-0.957,0.957-0.957S366.131,81.474,366.131,82.003z"/>
	</g>
</g>
<g id="Character">
	<g id="Character_1_">
		<g>
			<path style="fill:#263238;" d="M371.388,407.774c-0.256,0.083-0.295,1.559-0.064,2.045c0.255,0.539,1.867,2.313,5.147,2.958
				c3.28,0.645,7.794-0.017,9.732-0.118c1.938-0.1,8.04,0.626,9.978,0.888c3.044,0.412,5.388-0.255,6.524-1.359
				c0.445-0.433,0.48-1.063,0.457-1.604c-0.053-1.285-0.174-1.543-0.323-1.531L371.388,407.774z"/>
			<g id="XMLID_1019_">
				<g id="XMLID_1020_">
					<path id="XMLID_1022_" style="fill:#37474F;" d="M402.332,405.226c0.06,0.253,0.115,0.508,0.164,0.764
						c0.241,1.265,0.45,2.668,0.282,3.953c-0.392,0.963-1.472,1.493-2.34,1.768c-2.29,0.728-4.039,0.611-6.579,0.13
						c-1.522-0.288-5.901-0.597-7.722-0.474c-2,0.135-4.752,0.519-6.752,0.335c-1.709-0.157-3.387-0.335-4.969-1.013
						c-1.336-0.572-2.698-1.304-3.023-2.677c-0.126-2.503,1.136-3.713,2.51-4.517c1.451-0.849,3.342-1.084,5.023-1.081
						c1.892,0.003,3.321,0.245,4.997,0.118c1.136-0.086,3.212-0.252,4.312-0.6c1.262-0.398,3.146-1.632,3.683-1.689
						c0,0,7.92-0.196,8.722-0.13c0.926,0.077,1.094,2.061,1.209,2.685c0.09,0.489,0.106,1.012,0.237,1.484
						C402.174,404.596,402.257,404.91,402.332,405.226z"/>
				</g>
			</g>
			<path style="fill:#FAFAFA;" d="M386.816,402.233c-1.812,1.388-2.063,3.558-2.063,3.558c0.049,0.967-1.656,1.052-1.704,0.085
				c0,0,0.334-1.983,1.5-3.403C384.549,402.473,385.74,401.971,386.816,402.233z"/>
			<path style="fill:#FAFAFA;" d="M383.024,402.568c0,0-1.304,1.015-1.828,3.274c-0.023,0.715-1.51,0.652-1.487-0.063
				c0,0,0.204-2.289,1.833-3.256C382.012,402.195,382.869,402.285,383.024,402.568z"/>
		</g>
		<g>
			<path id="XMLID_1016_" style="fill:#263238;" d="M408.159,382.206c-0.25,2.717-0.32,3.444,0.349,5.224
				c0.959,2.554,2.655,3.73,3.802,4.722c1.147,0.992,2.432,2.467,3.363,3.914c0.828,1.286,1.767,2.762,3.512,4.214
				c1.089,0.906,4.104,0.929,5.545,0.289c1.441-0.64,1.917-1.197,1.781-3.516c-0.133-2.266-7.187-2.969-7.187-2.969L408.159,382.206
				z"/>
			<path id="XMLID_1015_" style="fill:#37474F;" d="M425.463,390.151c0.605,0.215,0.78,1.355,0.916,3.627
				c0.103,1.719,0.877,4.222-1.471,5.354c-1.893,0.913-4.96,0.393-6.284-1.203c-1.652-1.991-2.777-3.751-5.127-6.173
				c-2.038-2.102-4.13-2.782-5.102-7.045c-0.625-2.741-0.2-3.889,1.636-4.716c2.525-1.136,6.597,2.329,8.603,2.848
				C420.364,383.289,424.858,389.936,425.463,390.151z"/>
			<path id="XMLID_1013_" style="fill:#FAFAFA;" d="M418.635,382.842c-0.107-0.028-0.223-0.068-0.341-0.111
				c-3.668,0.393-5.087,2.954-5.441,3.726c-0.325,0.756,0.734,1.318,1.345,0.722c1.366-2.856,4.276-3.542,5.437-3.704
				C419.252,383.148,418.907,382.913,418.635,382.842z"/>
			<path id="XMLID_1012_" style="fill:#FAFAFA;" d="M420.308,384.105c-3.386,0.524-4.709,2.942-5.05,3.688
				c-0.324,0.756,0.734,1.318,1.345,0.722c1.083-2.265,3.141-3.166,4.526-3.523C420.849,384.676,420.573,384.374,420.308,384.105z"
				/>
		</g>
		<path style="fill:#B16668;" d="M428.721,346.489l-14.257,1.848c0,0,0.375,8.783,1.248,18.368
			c0.727,7.984,1.624,19.37,2.076,22.997c0.054,0.604,0.105,1.066,0.144,1.145c0.235,2.136,7.529,2.787,7.529,0.311l0.146-2.901
			C426.207,379.626,429.442,359.404,428.721,346.489z"/>
		<path style="fill:#B16668;" d="M402.745,349.187l-11.843,1.653l0.972,48.459l-0.03,0.857c0.076,2.158,1.241,2.865,4.221,2.979
			c3.619,0.139,4.963-1.423,4.994-2.606c0.003-0.112,0.007-0.237,0.011-0.362c1.272-11.253,3.183-29.886,3.441-36.027
			C404.719,359.21,403.981,352.654,402.745,349.187z"/>
		<g id="XMLID_986_">
			<path id="XMLID_987_" style="fill:#B16668;" d="M442.278,267.376c-4.854-28.088-10.082-33.23-18.547-36.856l2.013,15.663
				c0,0,7.216,18.397,8.127,24.823c0.8,5.646,1.659,12.738,1.244,17.515c-0.073,0.846-0.479,1.627-1.096,2.211
				c-1.657,1.565-2.176,2.935-3.303,4.714c-0.882,1.393-1.775,1.875-1.553,2.218c0.285,0.44,1.237,1.054,2.522,0.362
				c0.646-0.348,1.428-1.065,2.395-1.997c0,0-0.326,2.486-1.803,5.282c-2.002,3.789-1.718,5.812,3.654,4.783
				c3.366-0.644,5.631-3.255,6.674-11.166c0.3-2.279,0.765-5.875,0.693-8.788C443.112,278.555,443.059,271.897,442.278,267.376z"/>
			<path style="fill:#263238;" d="M443.655,277.445c0,0-0.048,6.392-0.357,8.695c0,0-5.042,1.314-8.26-0.192l-0.965-7.47
				L443.655,277.445z"/>
			<path style="fill:#37474F;" d="M419.311,229.938c3.296-0.106,10.602-0.134,14.451,7.471c3.63,7.173,9.533,21.974,9.907,40.476
				c0,0-5.184,1.503-9.595,0.592c0,0-1.291-9.381-3.751-15.492c-2.067-5.133-6.641-17.951-6.958-19.88
				C423.041,241.135,419.311,229.938,419.311,229.938z"/>
		</g>
		<g id="XMLID_976_">
			<g>
				<path id="XMLID_985_" style="fill:#27DEBF;" d="M429.232,347.852c-0.343-8.278-1.223-8.459-2.551-14.938
					c0.668-7.89,1.3-14.527,1.579-23.079c0.301-9.237-0.094-20.347-0.092-30.164c-10.107-0.675-35.385-9.038-38.549,6.852
					c-0.923,12.827,0.356,38.222,0.503,55.708c0.147,17.486-0.09,31.888,0.936,50.654c2.905,1.061,8.241,1.52,11.079-0.387
					c2.297-11.738,3.581-23.568,4.398-30.849c0.997-8.892-0.031-12.463,0.052-16.511c0.49-6.98,1.1-14.594,1.637-21.42
					c0.537-6.826,2.043-21.073,2.043-21.073s1.037,16.571,1.6,24.895c0.564,8.324,1.233,14.563,2.109,24.078
					c0.81,8.784,1.704,18.966,2.557,29.13c2.393,1.132,6.752,1.693,9.999-0.163C428.669,370.994,429.575,356.13,429.232,347.852z"/>
				<path id="XMLID_980_" style="opacity:0.5;fill:#FFFFFF;" d="M429.232,347.852c-0.343-8.278-1.223-8.459-2.551-14.938
					c0.668-7.89,1.3-14.527,1.579-23.079c0.301-9.237-0.094-20.347-0.092-30.164c-10.107-0.675-35.385-9.038-38.549,6.852
					c-0.923,12.827,0.356,38.222,0.503,55.708c0.147,17.486-0.09,31.888,0.936,50.654c2.905,1.061,8.241,1.52,11.079-0.387
					c2.297-11.738,3.581-23.568,4.398-30.849c0.997-8.892-0.031-12.463,0.052-16.511c0.49-6.98,1.1-14.594,1.637-21.42
					c0.537-6.826,2.043-21.073,2.043-21.073c0.51,8.127,1.037,16.571,1.6,24.895c0.564,8.324,1.233,14.563,2.109,24.078
					c0.81,8.784,1.704,18.966,2.557,29.13c2.393,1.132,6.752,1.693,9.999-0.163C428.669,370.994,429.575,356.13,429.232,347.852z"/>
			</g>
			<g id="XMLID_977_" style="opacity:0.2;">
				<path id="XMLID_978_" d="M410.268,302.646c4.181-0.367,6.531-1.767,9.481-5.065c-0.628,2.143-2.113,5.197-6.939,6.5
					c-0.182,1.101-1.254,18.957-1.254,18.957L410.268,302.646z"/>
			</g>
		</g>
		<g id="XMLID_973_">
			<g id="XMLID_974_">
				<path id="XMLID_975_" style="fill:#455A64;" d="M427.019,236.32c-1.132-3.44-5.495-7.184-9.863-6.373
					c-8.023,1.49-14.387,3.084-19.125,4.776c-3.998,1.428-7.64,4.883-7.971,18.035c0,0-2.669,32.676-0.618,37.009
					c10.04,3.973,19.736,3.43,25.508,2.17c12.015-2.625,13.464-7.609,13.464-7.609s0.155-22.047-0.205-31.57
					C427.903,244.668,427.796,238.682,427.019,236.32z"/>
			</g>
		</g>
		<g id="XMLID_971_">
			<polygon id="XMLID_972_" style="fill:#B16668;" points="401.802,225.441 403.104,237.721 414.108,237.734 412.829,223.827 			"/>
			<g>
				<path style="fill:#37474F;" d="M399.198,234.32c0.799-1.668,1.425-3.896,2.97-4.184c0,0,5.402,0.809,8.067-0.301
					c2.665-1.109,3.387-2.372,3.387-2.372s2.347-0.995,3.953,0.714c1.606,1.709,6.404,4.54,7.666,9.557
					c1.262,5.016,2.288,14.278-3.506,16.068c-8.485,2.622-14.528-1.363-16.549-8.387C402.972,237.72,403.588,235.707,399.198,234.32
					z"/>
				<path style="fill:#263238;" d="M405.835,234.955c1.385,1.904,2.858,10.179,6.153,13.404c3.296,3.225,10.443,2.454,11.743-0.842
					c0,0-0.243,4.207-5.292,4.698c-5.049,0.491-9.467-3.085-10.729-7.994C406.449,239.314,406.624,237.188,405.835,234.955z"/>
			</g>
		</g>
		<g>
			<g id="XMLID_983_">
				<g id="XMLID_967_">
					<path id="XMLID_969_" style="fill:#9A4A4D;" d="M393.054,210.982c0,0-3.12,4.975-2.742,5.448
						c0.379,0.473,2.766,0.854,2.766,0.854L393.054,210.982z"/>
				</g>
				<g id="XMLID_984_">
					<path id="XMLID_966_" style="fill:#B16668;" d="M400.685,198.861c-5.803,1.362-7.429,3.963-7.77,13.238
						c-0.356,9.692,0.701,12.713,2.001,13.987c0.879,0.86,5.652,0.912,8.043,0.194c2.993-0.898,9.745-3.463,12.823-8.404
						c3.62-5.813,4.431-13.598,0.344-16.692C410.377,196.829,403.047,198.307,400.685,198.861z"/>
				</g>
			</g>
			<g id="XMLID_956_">
				<g id="XMLID_981_">
					<g id="XMLID_961_">
						<path id="XMLID_982_" style="fill:#263238;" d="M392.448,202.813c1.011,0.784,2.228,1.234,3.59,1.112
							c-0.253,0.023-0.172,1.08-0.14,1.229c0.103,0.475,0.362,0.815,0.704,1.143c0.661,0.633,1.779,0.982,2.618,0.454
							c-0.79,0.65-0.189,2.617,0.085,3.424c0.326,0.957,0.458,1.976,1.531,2.406c0,0,0.841-3.599,3.867-3.217
							c3.046,0.385,3.543,4.244,1.683,6.638c-1.861,2.394-3.663,1.533-3.663,1.533s0.209,5.112,2.539,7.956
							c0,0,2.976,0.849,7.695-0.268c1.87-2.091,4.476-4.778,7.201-8.464c5.319-7.197,4.58-15.523-0.68-17.607
							c0.092,0.036-0.084-2.989-0.169-3.295c-0.303-1.098-0.81-1.914-1.689-2.63c-1.795-1.462-4.147-2.06-6.418-2.202
							c-2.653-0.166-5.309,0.218-7.967,0.202c-2.901-0.018-5.798-0.517-8.537-1.472c-1.169-0.407-2.605-0.851-3.524-0.023
							c-0.642,0.578-0.724,1.558-0.6,2.413c0.257,1.769,1.228,3.423,2.648,4.51c-0.589,0.159-1.182-0.183-1.729-0.453
							c-0.547-0.27-1.26-0.459-1.724-0.063c-0.42,0.359-0.405,1.006-0.304,1.549C389.824,199.61,390.893,201.607,392.448,202.813z"
							/>
					</g>
				</g>
				<g id="XMLID_959_">
					<g id="XMLID_1265_">
						<path id="XMLID_960_" style="fill:#263238;" d="M419.597,200.407l3.443-2.135c-0.59-0.951-1.839-1.243-2.789-0.654
							C419.3,198.208,419.008,199.457,419.597,200.407z"/>
					</g>
				</g>
			</g>
		</g>
		<g>
			<path id="XMLID_954_" style="fill:#B16668;" d="M349.708,257.497c1.88,0.836,24.021,17.199,27.473,15.293
				c3.452-1.905,21.163-22.598,21.163-22.598c5.143-8.522,0-15.523,0-15.523s-5.915-0.496-10.103,5.287
				c-3.159,4.361-14.517,19.244-14.517,19.244c-3.17-1.587-14.507-5.91-17.047-7.354c-0.634-0.36-1.471-0.711-1.996-1.231
				c-1.252-1.239-1.038-4.234-1.014-5.863c0.011-0.762,0.022-1.525,0.11-2.282c0.108-0.931,0.286-3.21-1.389-2.486
				c-0.323,0.14-0.585,0.393-0.8,0.672c-0.264,0.342-0.468,0.731-0.6,1.142c-0.316,0.985-0.214,2.063-0.505,3.056
				c-0.042,0.145-0.096,0.293-0.206,0.396c-0.137,0.13-0.34,0.168-0.529,0.162c-2.44-0.074-4.749-3.493-5.87-5.308
				c-0.499-0.809-0.99-1.708-1.851-2.11c-1.336-0.624-2.939,0.269-3.799,1.467c-1.096,1.527-1.425,3.509-1.209,5.376
				c0.3,2.588,1.292,4.981,3.181,6.742C343.065,254.249,346.174,255.926,349.708,257.497z"/>
			<path style="fill:#263238;" d="M365.806,255.817l-5.54-2.306c0,0-4.439,2.385-4.38,8.064l5.364,3.563L365.806,255.817z"/>
			<path style="fill:#37474F;" d="M399.198,234.32c0,0-5.382-0.436-8.554,2.327c-3.172,2.762-17.086,21.792-17.086,21.792
				l-7.752-2.622c0,0-5.176,3.52-4.556,9.32c0,0,5.454,4.044,8.421,5.784c2.967,1.739,5.921,2.832,7.237,2.762
				c1.317-0.07,20.898-21.421,20.898-21.421s3.898-4.975,3.534-9.988C400.977,237.26,399.198,234.32,399.198,234.32z"/>
		</g>
	</g>
</g>
</svg>
